<?xml version="1.0" encoding="UTF-8" standalone="no"?>
<!-- Created with Inkscape (http://www.inkscape.org/) -->

<svg
   xmlns:dc="http://purl.org/dc/elements/1.1/"
   xmlns:cc="http://creativecommons.org/ns#"
   xmlns:rdf="http://www.w3.org/1999/02/22-rdf-syntax-ns#"
   xmlns:svg="http://www.w3.org/2000/svg"
   xmlns="http://www.w3.org/2000/svg"
   xmlns:xlink="http://www.w3.org/1999/xlink"
   xmlns:sodipodi="http://sodipodi.sourceforge.net/DTD/sodipodi-0.dtd"
   xmlns:inkscape="http://www.inkscape.org/namespaces/inkscape"
   width="100"
   height="100"
   viewBox="0 0 26.458333 26.458334"
   version="1.1"
   id="svg8"
   inkscape:version="0.92.5 (2060ec1f9f, 2020-04-08)"
   sodipodi:docname="afanasy_logo.svg"
   enable-background="new">
  <defs
     id="defs2">
    <inkscape:perspective
       sodipodi:type="inkscape:persp3d"
       inkscape:vp_x="0 : 13.229167 : 1"
       inkscape:vp_y="0 : 1000 : 0"
       inkscape:vp_z="26.458333 : 13.229167 : 1"
       inkscape:persp3d-origin="13.229166 : 8.8194447 : 1"
       id="perspective1744" />
    <linearGradient
       inkscape:collect="always"
       id="linearGradient5244">
      <stop
         style="stop-color:#758b65;stop-opacity:1;"
         offset="0"
         id="stop5240" />
      <stop
         style="stop-color:#758b65;stop-opacity:0;"
         offset="1"
         id="stop5242" />
    </linearGradient>
    <linearGradient
       inkscape:collect="always"
       xlink:href="#linearGradient5244"
       id="linearGradient5246"
       x1="0.80823981"
       y1="343.19543"
       x2="21.506619"
       y2="343.19543"
       gradientUnits="userSpaceOnUse" />
    <filter
       inkscape:collect="always"
       style="color-interpolation-filters:sRGB"
       id="filter5739"
       x="-0.033439828"
       width="1.0668797"
       y="-0.13242085"
       height="1.2648417">
      <feGaussianBlur
         inkscape:collect="always"
         stdDeviation="0.28470943"
         id="feGaussianBlur5741" />
    </filter>
    <filter
       inkscape:collect="always"
       style="color-interpolation-filters:sRGB"
       id="filter1738"
       x="-0.14057612"
       width="1.2811522"
       y="-0.14759483"
       height="1.2951897">
      <feGaussianBlur
         inkscape:collect="always"
         stdDeviation="1.4075484"
         id="feGaussianBlur1740" />
    </filter>
  </defs>
  <sodipodi:namedview
     id="base"
     pagecolor="#ffffff"
     bordercolor="#666666"
     borderopacity="1.0"
     inkscape:pageopacity="0"
     inkscape:pageshadow="2"
     inkscape:zoom="5.6"
     inkscape:cx="-21.731176"
     inkscape:cy="51.20546"
     inkscape:document-units="px"
     inkscape:current-layer="layer1"
     showgrid="false"
     units="px"
     inkscape:window-width="1920"
     inkscape:window-height="1029"
     inkscape:window-x="0"
     inkscape:window-y="25"
     inkscape:window-maximized="1" />
  <metadata
     id="metadata5">
    <rdf:RDF>
      <cc:Work
         rdf:about="">
        <dc:format>image/svg+xml</dc:format>
        <dc:type
           rdf:resource="http://purl.org/dc/dcmitype/StillImage" />
        <dc:title />
      </cc:Work>
    </rdf:RDF>
  </metadata>
  <g
     inkscape:label="Layer 1"
     inkscape:groupmode="layer"
     id="layer1"
     transform="translate(0,-270.54165)"
     style="display:inline">
    <path
       transform="matrix(0.65950142,0,0,0.59404728,-1.667283,113.78872)"
       inkscape:label="Star"
       style="display:inline;opacity:1;fill:#09100a;fill-opacity:1;stroke:#030d03;stroke-width:0.70292336;stroke-linejoin:round;stroke-miterlimit:4;stroke-dasharray:none;stroke-opacity:1"
       inkscape:transform-center-y="-0.7124753"
       inkscape:transform-center-x="0.0043085048"
       d="m 34.597883,282.85206 c 0.270095,0.82656 -6.327204,4.84063 -6.59453,5.66808 -0.267327,0.82746 2.73443,7.9427 2.031791,8.45499 -0.70264,0.5123 -6.558925,-4.52169 -7.428493,-4.52023 -0.869568,0.001 -6.708965,5.05502 -7.413315,4.54508 -0.704351,-0.50994 2.273564,-7.63519 2.003469,-8.46174 -0.270096,-0.82656 -6.880799,-4.81852 -6.613472,-5.64598 0.267326,-0.82746 7.964065,-0.19711 8.666704,-0.70941 0.70264,-0.5123 2.456397,-8.03303 3.325965,-8.03449 0.869568,-0.001 2.648498,7.51337 3.352849,8.02331 0.704351,0.50994 8.398936,-0.14617 8.669032,0.68039 z"
       inkscape:randomized="0"
       inkscape:rounded="0.1"
       inkscape:flatsided="false"
       sodipodi:arg2="0.31248507"
       sodipodi:arg1="-0.31583346"
       sodipodi:r2="5.6813464"
       sodipodi:r1="12.625214"
       sodipodi:cy="286.77356"
       sodipodi:cx="22.597139"
       sodipodi:sides="5"
       id="path4567"
       sodipodi:type="star" />
    <path
       sodipodi:type="star"
       id="star"
       sodipodi:sides="5"
       sodipodi:cx="22.597139"
       sodipodi:cy="286.77356"
       sodipodi:r1="12.625214"
       sodipodi:r2="5.6813464"
       sodipodi:arg1="-0.31583346"
       sodipodi:arg2="0.31248507"
       inkscape:flatsided="false"
       inkscape:rounded="0.1"
       inkscape:randomized="0"
       d="m 34.597883,282.85206 c 0.270095,0.82656 -6.327204,4.84063 -6.59453,5.66808 -0.267327,0.82746 2.73443,7.9427 2.031791,8.45499 -0.70264,0.5123 -6.558925,-4.52169 -7.428493,-4.52023 -0.869568,0.001 -6.708965,5.05502 -7.413315,4.54508 -0.704351,-0.50994 2.273564,-7.63519 2.003469,-8.46174 -0.270096,-0.82656 -6.880799,-4.81852 -6.613472,-5.64598 0.267326,-0.82746 7.964065,-0.19711 8.666704,-0.70941 0.70264,-0.5123 2.456397,-8.03303 3.325965,-8.03449 0.869568,-0.001 2.648498,7.51337 3.352849,8.02331 0.704351,0.50994 8.398936,-0.14617 8.669032,0.68039 z"
       inkscape:transform-center-x="0.0038071258"
       inkscape:transform-center-y="-0.62955211"
       style="display:inline;opacity:1;fill:#5f7454;fill-opacity:1;stroke:none;stroke-width:0.7027837;stroke-linejoin:round;stroke-miterlimit:4;stroke-dasharray:none;stroke-opacity:1;filter:url(#filter1738)"
       inkscape:label="Star-blurred"
       transform="matrix(0.58274541,0,0,0.52490914,0.06719012,133.61696)" />
    <g
       aria-label="CGRU"
       transform="scale(0.95630636,1.04569)"
       style="font-style:normal;font-variant:normal;font-weight:bold;font-stretch:normal;font-size:5.17756367px;line-height:1.25;font-family:sans-serif;-inkscape-font-specification:'sans-serif, Bold';font-variant-ligatures:normal;font-variant-caps:normal;font-variant-numeric:normal;font-feature-settings:normal;text-align:start;letter-spacing:0px;word-spacing:0px;writing-mode:lr-tb;text-anchor:start;display:inline;fill:#000000;fill-opacity:1;fill-rule:nonzero;stroke:#000000;stroke-width:0.20079494;stroke-linejoin:round;stroke-miterlimit:4;stroke-dasharray:none;stroke-opacity:1"
       id="text41">
      <path
         d="m 9.0963188,282.76169 q -0.2679794,0.13905 -0.5587117,0.20983 -0.2907323,0.0708 -0.6067457,0.0708 -0.9429841,0 -1.4941114,-0.52585 -0.5511274,-0.52837 -0.5511274,-1.43091 0,-0.90506 0.5511274,-1.4309 0.5511273,-0.52838 1.4941114,-0.52838 0.3160134,0 0.6067457,0.0708 0.2907323,0.0708 0.5587117,0.20983 v 0.78119 q -0.2705075,-0.18456 -0.5334306,-0.27051 -0.2629232,-0.086 -0.5536555,-0.086 -0.5207901,0 -0.8191068,0.33371 -0.2983166,0.33371 -0.2983166,0.92023 0,0.584 0.2983166,0.91771 0.2983167,0.33371 0.8191068,0.33371 0.2907323,0 0.5536555,-0.086 0.2629231,-0.086 0.5334306,-0.27051 z"
         style="font-style:normal;font-variant:normal;font-weight:bold;font-stretch:normal;font-size:5.17756367px;font-family:sans-serif;-inkscape-font-specification:'sans-serif, Bold';font-variant-ligatures:normal;font-variant-caps:normal;font-variant-numeric:normal;font-feature-settings:normal;text-align:start;writing-mode:lr-tb;text-anchor:start;fill:#000000;fill-opacity:1;fill-rule:nonzero;stroke:#000000;stroke-width:0.20079494;stroke-linejoin:round;stroke-miterlimit:4;stroke-dasharray:none;stroke-opacity:1"
         id="path864"
         inkscape:connector-curvature="0" />
      <path
         d="m 13.295505,282.68837 q -0.364047,0.17697 -0.755904,0.26546 -0.391857,0.0885 -0.808994,0.0885 -0.942984,0 -1.494112,-0.52585 -0.5511271,-0.52837 -0.5511271,-1.43091 0,-0.91264 0.5612401,-1.43596 0.56124,-0.52332 1.537089,-0.52332 0.376688,0 0.72051,0.0708 0.346351,0.0708 0.652252,0.20983 v 0.78119 q -0.316013,-0.1795 -0.629499,-0.26798 -0.310957,-0.0885 -0.624442,-0.0885 -0.581465,0 -0.897478,0.32613 -0.313485,0.3236 -0.313485,0.92781 0,0.59917 0.303372,0.92529 0.303373,0.32613 0.862085,0.32613 0.151686,0 0.28062,-0.0177 0.131462,-0.0202 0.235114,-0.0607 v -0.73316 h -0.594105 v -0.65225 h 1.516864 z"
         style="font-style:normal;font-variant:normal;font-weight:bold;font-stretch:normal;font-size:5.17756367px;font-family:sans-serif;-inkscape-font-specification:'sans-serif, Bold';font-variant-ligatures:normal;font-variant-caps:normal;font-variant-numeric:normal;font-feature-settings:normal;text-align:start;writing-mode:lr-tb;text-anchor:start;fill:#000000;fill-opacity:1;fill-rule:nonzero;stroke:#000000;stroke-width:0.20079494;stroke-linejoin:round;stroke-miterlimit:4;stroke-dasharray:none;stroke-opacity:1"
         id="path866"
         inkscape:connector-curvature="0" />
      <path
         d="m 15.535408,280.86814 q 0.305901,0 0.437363,-0.11377 0.13399,-0.11376 0.13399,-0.37416 0,-0.25786 -0.13399,-0.3691 -0.131462,-0.11124 -0.437363,-0.11124 h -0.409553 v 0.96827 z m -0.409553,0.67247 v 1.42838 h -0.973321 v -3.77446 h 1.486527 q 0.745791,0 1.092142,0.25028 0.348879,0.25029 0.348879,0.7913 0,0.37416 -0.182024,0.61433 -0.179496,0.24017 -0.543543,0.35394 0.19972,0.0455 0.356463,0.2073 0.159271,0.15927 0.32107,0.4854 l 0.528374,1.07191 h -1.036524 l -0.460115,-0.93792 q -0.139046,-0.28315 -0.283148,-0.3868 -0.141574,-0.10366 -0.379216,-0.10366 z"
         style="font-style:normal;font-variant:normal;font-weight:bold;font-stretch:normal;font-size:5.17756367px;font-family:sans-serif;-inkscape-font-specification:'sans-serif, Bold';font-variant-ligatures:normal;font-variant-caps:normal;font-variant-numeric:normal;font-feature-settings:normal;text-align:start;writing-mode:lr-tb;text-anchor:start;fill:#000000;fill-opacity:1;fill-rule:nonzero;stroke:#000000;stroke-width:0.20079494;stroke-linejoin:round;stroke-miterlimit:4;stroke-dasharray:none;stroke-opacity:1"
         id="path868"
         inkscape:connector-curvature="0" />
      <path
         d="m 18.139359,279.19453 h 0.973321 v 2.26266 q 0,0.4677 0.151686,0.66994 0.154215,0.19972 0.500566,0.19972 0.348878,0 0.500565,-0.19972 0.154214,-0.20224 0.154214,-0.66994 v -2.26266 h 0.973322 v 2.26266 q 0,0.80141 -0.401969,1.19326 -0.401969,0.39186 -1.226132,0.39186 -0.821635,0 -1.223604,-0.39186 -0.401969,-0.39185 -0.401969,-1.19326 z"
         style="font-style:normal;font-variant:normal;font-weight:bold;font-stretch:normal;font-size:5.17756367px;font-family:sans-serif;-inkscape-font-specification:'sans-serif, Bold';font-variant-ligatures:normal;font-variant-caps:normal;font-variant-numeric:normal;font-feature-settings:normal;text-align:start;writing-mode:lr-tb;text-anchor:start;fill:#000000;fill-opacity:1;fill-rule:nonzero;stroke:#000000;stroke-width:0.20079494;stroke-linejoin:round;stroke-miterlimit:4;stroke-dasharray:none;stroke-opacity:1"
         id="path870"
         inkscape:connector-curvature="0" />
    </g>
    <g
       aria-label="CGRU"
       transform="matrix(0.72575037,0,0,0.79358449,4.9458673,21.572473)"
       style="font-style:normal;font-variant:normal;font-weight:bold;font-stretch:normal;font-size:6.82236958px;line-height:1.25;font-family:sans-serif;-inkscape-font-specification:'sans-serif, Bold';font-variant-ligatures:normal;font-variant-caps:normal;font-variant-numeric:normal;font-feature-settings:normal;text-align:start;letter-spacing:0px;word-spacing:0px;writing-mode:lr-tb;text-anchor:start;display:inline;fill:#637553;fill-opacity:1;fill-rule:nonzero;stroke:none;stroke-width:0.26458335;stroke-miterlimit:4;stroke-dasharray:none;stroke-opacity:1;filter:url(#filter5739)"
       id="text5229">
      <path
         d="m 5.1712001,345.4057 q -0.3531109,0.18322 -0.7362029,0.27649 -0.3830921,0.0933 -0.7994965,0.0933 -1.2425507,0 -1.96876,-0.6929 -0.72620922,-0.69623 -0.72620922,-1.88548 0,-1.19258 0.72620922,-1.88548 0.7262093,-0.69622 1.96876,-0.69622 0.4164044,0 0.7994965,0.0933 0.383092,0.0933 0.7362029,0.27649 v 1.02935 Q 4.814758,341.77132 4.4683095,341.65806 4.121861,341.5448 3.738769,341.5448 q -0.6862344,0 -1.0793202,0.43972 -0.3930857,0.43973 -0.3930857,1.21257 0,0.76952 0.3930857,1.20924 0.3930858,0.43972 1.0793202,0.43972 0.383092,0 0.7295405,-0.11326 0.3464485,-0.11326 0.7028906,-0.35644 z"
         style="font-style:normal;font-variant:normal;font-weight:bold;font-stretch:normal;font-size:6.82236958px;font-family:sans-serif;-inkscape-font-specification:'sans-serif, Bold';font-variant-ligatures:normal;font-variant-caps:normal;font-variant-numeric:normal;font-feature-settings:normal;text-align:start;writing-mode:lr-tb;text-anchor:start;fill:#637553;fill-opacity:1;fill-rule:nonzero;stroke:none;stroke-width:0.26458335;stroke-miterlimit:4;stroke-dasharray:none;stroke-opacity:1"
         id="path873"
         inkscape:connector-curvature="0" />
      <path
         d="m 10.704382,345.3091 q -0.479698,0.23318 -0.9960396,0.34978 -0.5163415,0.11659 -1.0659953,0.11659 -1.2425507,0 -1.9687599,-0.6929 -0.7262093,-0.69623 -0.7262093,-1.88548 0,-1.20257 0.7395342,-1.89214 0.7395342,-0.68956 2.025391,-0.68956 0.496354,0 0.949402,0.0933 0.4563789,0.0933 0.8594589,0.27649 v 1.02935 q -0.416405,-0.23651 -0.8294778,-0.35311 -0.4097419,-0.11659 -0.8228151,-0.11659 -0.766184,0 -1.1825884,0.42973 -0.4130732,0.4264 -0.4130732,1.22256 0,0.78951 0.3997482,1.21924 0.3997482,0.42972 1.1359512,0.42972 0.1998741,0 0.3697671,-0.0233 0.1732242,-0.0267 0.3098049,-0.0799 v -0.96606 H 8.7056406 v -0.85946 h 1.9987414 z"
         style="font-style:normal;font-variant:normal;font-weight:bold;font-stretch:normal;font-size:6.82236958px;font-family:sans-serif;-inkscape-font-specification:'sans-serif, Bold';font-variant-ligatures:normal;font-variant-caps:normal;font-variant-numeric:normal;font-feature-settings:normal;text-align:start;writing-mode:lr-tb;text-anchor:start;fill:#637553;fill-opacity:1;fill-rule:nonzero;stroke:none;stroke-width:0.26458335;stroke-miterlimit:4;stroke-dasharray:none;stroke-opacity:1"
         id="path875"
         inkscape:connector-curvature="0" />
      <path
         d="m 13.655857,342.91061 q 0.403079,0 0.576303,-0.14991 0.176556,-0.1499 0.176556,-0.49302 0,-0.33979 -0.176556,-0.48636 -0.173224,-0.14658 -0.576303,-0.14658 h -0.539661 v 1.27587 z m -0.539661,0.88611 v 1.88214 h -1.282525 v -4.97353 h 1.958766 q 0.982715,0 1.439094,0.32979 0.45971,0.32979 0.45971,1.04268 0,0.49302 -0.239849,0.80949 -0.236517,0.31647 -0.716215,0.46637 0.263167,0.06 0.469704,0.27316 0.209868,0.20987 0.423067,0.6396 l 0.696228,1.41244 h -1.365807 l -0.606284,-1.23588 q -0.183218,-0.3731 -0.373099,-0.50968 -0.186549,-0.13658 -0.499685,-0.13658 z"
         style="font-style:normal;font-variant:normal;font-weight:bold;font-stretch:normal;font-size:6.82236958px;font-family:sans-serif;-inkscape-font-specification:'sans-serif, Bold';font-variant-ligatures:normal;font-variant-caps:normal;font-variant-numeric:normal;font-feature-settings:normal;text-align:start;writing-mode:lr-tb;text-anchor:start;fill:#637553;fill-opacity:1;fill-rule:nonzero;stroke:none;stroke-width:0.26458335;stroke-miterlimit:4;stroke-dasharray:none;stroke-opacity:1"
         id="path877"
         inkscape:connector-curvature="0" />
      <path
         d="m 17.087028,340.70533 h 1.282525 v 2.98145 q 0,0.61628 0.199874,0.88278 0.203206,0.26317 0.659585,0.26317 0.459711,0 0.659585,-0.26317 0.203205,-0.2665 0.203205,-0.88278 v -2.98145 h 1.282525 v 2.98145 q 0,1.05601 -0.529666,1.57235 -0.529666,0.51634 -1.615649,0.51634 -1.082651,0 -1.612318,-0.51634 -0.529666,-0.51634 -0.529666,-1.57235 z"
         style="font-style:normal;font-variant:normal;font-weight:bold;font-stretch:normal;font-size:6.82236958px;font-family:sans-serif;-inkscape-font-specification:'sans-serif, Bold';font-variant-ligatures:normal;font-variant-caps:normal;font-variant-numeric:normal;font-feature-settings:normal;text-align:start;writing-mode:lr-tb;text-anchor:start;fill:#637553;fill-opacity:1;fill-rule:nonzero;stroke:none;stroke-width:0.26458335;stroke-miterlimit:4;stroke-dasharray:none;stroke-opacity:1"
         id="path879"
         inkscape:connector-curvature="0" />
    </g>
    <g
       aria-label="AFANASY"
       transform="scale(0.96577364,1.0354393)"
       style="font-style:normal;font-variant:normal;font-weight:bold;font-stretch:normal;font-size:5.05265808px;line-height:1.25;font-family:sans-serif;-inkscape-font-specification:'sans-serif, Bold';font-variant-ligatures:normal;font-variant-caps:normal;font-variant-numeric:normal;font-feature-settings:normal;text-align:start;letter-spacing:0px;word-spacing:0px;writing-mode:lr-tb;text-anchor:start;display:inline;fill:#000000;fill-opacity:1;fill-rule:nonzero;stroke:#000000;stroke-width:0.19595087;stroke-linejoin:round;stroke-miterlimit:4;stroke-dasharray:none;stroke-opacity:1"
       id="text828">
      <path
         d="M 3.2503823,265.11767 H 1.7651772 l -0.2343763,0.67106 H 0.57602619 l 1.36431641,-3.68341 h 1.1324072 l 1.3643164,3.68341 H 3.4822914 Z m -1.2483618,-0.68339 h 1.0090514 l -0.5032922,-1.46547 z"
         style="stroke:#000000;stroke-width:0.19595087;stroke-opacity:1"
         id="path834"
         inkscape:connector-curvature="0" />
      <path
         d="m 4.9255555,262.10532 h 2.5633358 v 0.71793 H 5.875396 v 0.68586 h 1.5172777 v 0.71793 H 5.875396 v 1.56169 H 4.9255555 Z"
         style="stroke:#000000;stroke-width:0.19595087;stroke-opacity:1"
         id="path836"
         inkscape:connector-curvature="0" />
      <path
         d="M 10.03249,265.11767 H 8.547285 l -0.2343762,0.67106 H 7.358134 l 1.3643164,-3.68341 h 1.1324072 l 1.3643164,3.68341 h -0.954775 z m -1.2483617,-0.68339 h 1.0090514 l -0.5032921,-1.46547 z"
         style="stroke:#000000;stroke-width:0.19595087;stroke-opacity:1"
         id="path838"
         inkscape:connector-curvature="0" />
      <path
         d="m 11.707663,262.10532 h 1.060861 l 1.339645,2.52633 v -2.52633 h 0.900498 v 3.68341 h -1.060861 l -1.339645,-2.52633 v 2.52633 h -0.900498 z"
         style="stroke:#000000;stroke-width:0.19595087;stroke-opacity:1"
         id="path840"
         inkscape:connector-curvature="0" />
      <path
         d="m 18.171513,265.11767 h -1.485205 l -0.234376,0.67106 h -0.954775 l 1.364317,-3.68341 h 1.132407 l 1.364316,3.68341 h -0.954774 z m -1.248361,-0.68339 h 1.009051 l -0.503292,-1.46547 z"
         style="stroke:#000000;stroke-width:0.19595087;stroke-opacity:1"
         id="path842"
         inkscape:connector-curvature="0" />
      <path
         d="m 22.410021,262.22127 v 0.77961 q -0.303455,-0.13569 -0.592108,-0.20477 -0.288653,-0.0691 -0.545233,-0.0691 -0.340462,0 -0.503292,0.0937 -0.16283,0.0937 -0.16283,0.29112 0,0.14803 0.108553,0.23191 0.111021,0.0814 0.399673,0.14063 l 0.404608,0.0814 q 0.614312,0.12336 0.87336,0.37501 0.259047,0.25164 0.259047,0.71546 0,0.60938 -0.362666,0.9079 -0.3602,0.29605 -1.102802,0.29605 -0.350331,0 -0.703129,-0.0666 -0.352798,-0.0666 -0.705596,-0.19737 v -0.80181 q 0.352798,0.1875 0.680925,0.28372 0.330594,0.0937 0.636516,0.0937 0.310857,0 0.476154,-0.10362 0.165297,-0.10362 0.165297,-0.29606 0,-0.17269 -0.113487,-0.26644 -0.111021,-0.0938 -0.446549,-0.16777 l -0.3676,-0.0814 q -0.552635,-0.11843 -0.809215,-0.37747 -0.254113,-0.25905 -0.254113,-0.6982 0,-0.55016 0.355265,-0.84622 0.355265,-0.29605 1.021387,-0.29605 0.303455,0 0.624181,0.0469 0.320725,0.0444 0.663654,0.13569 z"
         style="stroke:#000000;stroke-width:0.19595087;stroke-opacity:1"
         id="path844"
         inkscape:connector-curvature="0" />
      <path
         d="m 22.972525,262.10532 h 1.038657 l 0.83882,1.31251 0.83882,-1.31251 h 1.041124 l -1.40379,2.13159 v 1.55182 h -0.949841 v -1.55182 z"
         style="stroke:#000000;stroke-width:0.19595087;stroke-opacity:1"
         id="path846"
         inkscape:connector-curvature="0" />
    </g>
    <g
       aria-label="AFANASY"
       transform="matrix(0.71525353,0,0,0.76684807,0.10279877,10.124959)"
       style="font-style:normal;font-variant:normal;font-weight:bold;font-stretch:normal;font-size:6.82236958px;line-height:1.25;font-family:sans-serif;-inkscape-font-specification:'sans-serif, Bold';font-variant-ligatures:normal;font-variant-caps:normal;font-variant-numeric:normal;font-feature-settings:normal;text-align:start;letter-spacing:0px;word-spacing:0px;writing-mode:lr-tb;text-anchor:start;display:inline;fill:#637553;fill-opacity:1;fill-rule:nonzero;stroke:none;stroke-width:0.26458335;stroke-miterlimit:4;stroke-dasharray:none;stroke-opacity:1;filter:url(#filter5739)"
       id="text832">
      <path
         d="M 4.2451167,344.77277 H 2.2397132 l -0.3164673,0.90609 H 0.63405785 l 1.84217305,-4.97353 h 1.5290369 l 1.8421731,4.97353 H 4.5582529 Z M 2.5595118,343.85002 H 3.9219869 L 3.242415,341.87126 Z"
         id="path849"
         inkscape:connector-curvature="0" />
      <path
         d="m 6.5070255,340.70533 h 3.4611534 v 0.96939 H 7.7895511 v 0.92608 h 2.0487096 v 0.96939 H 7.7895511 v 2.10867 H 6.5070255 Z"
         id="path851"
         inkscape:connector-curvature="0" />
      <path
         d="m 13.402683,344.77277 h -2.005404 l -0.316467,0.90609 H 9.7916239 l 1.8421731,-4.97353 h 1.529037 l 1.842173,4.97353 h -1.289188 z m -1.685605,-0.92275 h 1.362475 l -0.679572,-1.97876 z"
         id="path853"
         inkscape:connector-curvature="0" />
      <path
         d="m 15.664591,340.70533 h 1.432431 l 1.808861,3.41118 v -3.41118 h 1.215901 v 4.97353 h -1.432431 l -1.808861,-3.41118 v 3.41118 h -1.215901 z"
         id="path855"
         inkscape:connector-curvature="0" />
      <path
         d="m 24.392427,344.77277 h -2.005404 l -0.316467,0.90609 h -1.289188 l 1.842173,-4.97353 h 1.529037 l 1.842173,4.97353 h -1.289188 z m -1.685605,-0.92275 h 1.362475 l -0.679572,-1.97876 z"
         id="path857"
         inkscape:connector-curvature="0" />
      <path
         d="m 30.11549,340.8619 v 1.05267 q -0.409742,-0.18322 -0.799497,-0.27649 -0.389754,-0.0933 -0.736203,-0.0933 -0.45971,0 -0.679572,0.12659 -0.219861,0.12658 -0.219861,0.39308 0,0.19988 0.146574,0.31314 0.149906,0.10993 0.53966,0.18988 l 0.546323,0.10993 q 0.829477,0.16656 1.179257,0.50635 0.34978,0.33978 0.34978,0.96606 0,0.82281 -0.489692,1.22589 -0.48636,0.39975 -1.489062,0.39975 -0.473035,0 -0.949402,-0.0899 -0.476367,-0.09 -0.952733,-0.2665 v -1.08265 q 0.476366,0.25317 0.919421,0.38309 0.446385,0.12658 0.859458,0.12658 0.419736,0 0.642929,-0.13991 0.223192,-0.13991 0.223192,-0.39975 0,-0.23318 -0.153236,-0.35977 -0.149906,-0.12659 -0.602954,-0.22652 l -0.496354,-0.10993 q -0.746197,-0.1599 -1.092645,-0.50968 -0.343117,-0.34978 -0.343117,-0.94274 0,-0.74287 0.479697,-1.14262 0.479698,-0.39974 1.379132,-0.39974 0.409742,0 0.842802,0.0633 0.433061,0.06 0.896103,0.18322 z"
         id="path859"
         inkscape:connector-curvature="0" />
      <path
         d="m 30.87501,340.70533 h 1.40245 l 1.13262,1.77222 1.13262,-1.77222 h 1.405781 l -1.895473,2.87819 v 2.09534 h -1.282525 v -2.09534 z"
         id="path861"
         inkscape:connector-curvature="0" />
    </g>
  </g>
</svg>
