<?xml version="1.0" encoding="UTF-8" standalone="no"?>
<!-- Created with Inkscape (http://www.inkscape.org/) -->

<svg
   xmlns:dc="http://purl.org/dc/elements/1.1/"
   xmlns:cc="http://creativecommons.org/ns#"
   xmlns:rdf="http://www.w3.org/1999/02/22-rdf-syntax-ns#"
   xmlns:svg="http://www.w3.org/2000/svg"
   xmlns="http://www.w3.org/2000/svg"
   xmlns:sodipodi="http://sodipodi.sourceforge.net/DTD/sodipodi-0.dtd"
   xmlns:inkscape="http://www.inkscape.org/namespaces/inkscape"
   width="30"
   height="30"
   id="svg2"
   version="1.1"
   inkscape:version="0.48.4 r9939"
   sodipodi:docname="blades.svg">
  <defs
     id="defs4" />
  <sodipodi:namedview
     id="base"
     pagecolor="#ffffff"
     bordercolor="#666666"
     borderopacity="1.0"
     inkscape:pageopacity="0.0"
     inkscape:pageshadow="2"
     inkscape:zoom="15.839192"
     inkscape:cx="38.591418"
     inkscape:cy="16.789818"
     inkscape:document-units="px"
     inkscape:current-layer="layer1"
     showgrid="false"
     inkscape:window-width="1920"
     inkscape:window-height="1161"
     inkscape:window-x="1920"
     inkscape:window-y="0"
     inkscape:window-maximized="1" />
  <metadata
     id="metadata7">
    <rdf:RDF>
      <cc:Work
         rdf:about="">
        <dc:format>image/svg+xml</dc:format>
        <dc:type
           rdf:resource="http://purl.org/dc/dcmitype/StillImage" />
        <dc:title></dc:title>
      </cc:Work>
    </rdf:RDF>
  </metadata>
  <g
     inkscape:label="Layer 1"
     inkscape:groupmode="layer"
     id="layer1"
     transform="translate(0,-1022.3622)">
    <path
       style="opacity:0.98999999000000005;fill:#ffffff;fill-opacity:1;stroke:none"
       d="m 1.96875,1033.0226 c -0.9685003,0 -1.75,0.813 -1.75,1.8437 l 0,4.125 c 0,1.0307 0.7814997,1.875 1.75,1.875 l 26.1875,0 c 0.9685,0 1.75,-0.8443 1.75,-1.875 l 0,-4.125 c 0,-1.0307 -0.7815,-1.8437 -1.75,-1.8437 l -26.1875,0 z m 8.9375,1.625 15.84375,0 c 0.6712,0 1.21875,0.5475 1.21875,1.2187 l 0,2 c 0,0.6712 -0.54755,1.2188 -1.21875,1.2188 l -15.84375,0 c -0.6712,0 -1.21875,-0.5476 -1.21875,-1.2188 l 0,-2 c 0,-0.6712 0.54755,-1.2187 1.21875,-1.2187 z m -6.875,0.8125 c 0.081372,-0.018 0.1637055,0 0.25,0 0.6903559,0 1.25,0.5778 1.25,1.3125 0,0.7347 -0.5596441,1.3437 -1.25,1.3437 -0.6903559,0 -1.25,-0.609 -1.25,-1.3437 0,-0.6428 0.4303961,-1.1885 1,-1.3125 z"
       id="rect3132"
       inkscape:connector-curvature="0" />
    <path
       inkscape:connector-curvature="0"
       style="opacity:0.98999999000000005;fill:#ffffff;fill-opacity:1;stroke:none"
       d="m 1.9954037,1022.5236 c -0.9685003,0 -1.75,0.813 -1.75,1.8438 l 0,4.125 c 0,1.0307 0.7814997,1.875 1.75,1.875 l 26.1874993,0 c 0.9685,0 1.75,-0.8443 1.75,-1.875 l 0,-4.125 c 0,-1.0308 -0.7815,-1.8438 -1.75,-1.8438 l -26.1874993,0 z m 8.9374993,1.625 15.84375,0 c 0.6712,0 1.21875,0.5476 1.21875,1.2188 l 0,2 c 0,0.6712 -0.54755,1.2187 -1.21875,1.2187 l -15.84375,0 c -0.6712,0 -1.2187497,-0.5475 -1.2187497,-1.2187 l 0,-2 c 0,-0.6712 0.5475497,-1.2188 1.2187497,-1.2188 z m -6.8749993,0.8125 c 0.081372,-0.018 0.1637055,0 0.25,0 0.6903559,0 1.25,0.5778 1.25,1.3125 0,0.7347 -0.5596441,1.3438 -1.25,1.3438 -0.6903559,0 -1.25,-0.6091 -1.25,-1.3438 0,-0.6428 0.4303961,-1.1885 1,-1.3125 z"
       id="rect3132-7" />
    <path
       inkscape:connector-curvature="0"
       style="opacity:0.98999999000000005;fill:#ffffff;fill-opacity:1;stroke:none"
       d="m 2.026971,1044.3681 c -0.9685003,0 -1.75000002,0.813 -1.75000002,1.8438 l 0,4.125 c 0,1.0307 0.78149972,1.875 1.75000002,1.875 l 26.1875,0 c 0.9685,0 1.75,-0.8443 1.75,-1.875 l 0,-4.125 c 0,-1.0308 -0.7815,-1.8438 -1.75,-1.8438 l -26.1875,0 z m 8.9375,1.625 15.84375,0 c 0.6712,0 1.21875,0.5476 1.21875,1.2188 l 0,2 c 0,0.6712 -0.54755,1.2187 -1.21875,1.2187 l -15.84375,0 c -0.6712,0 -1.21875,-0.5475 -1.21875,-1.2187 l 0,-2 c 0,-0.6712 0.54755,-1.2188 1.21875,-1.2188 z m -6.875,0.8125 c 0.081372,-0.018 0.1637055,0 0.25,0 0.6903559,0 1.25,0.5778 1.25,1.3125 0,0.7347 -0.5596441,1.3438 -1.25,1.3438 -0.6903559,0 -1.25,-0.6091 -1.25,-1.3438 0,-0.6428 0.4303961,-1.1885 1,-1.3125 z"
       id="rect3132-8" />
  </g>
</svg>
