<?xml version="1.0" encoding="UTF-8" standalone="no"?>
<!-- Created with Inkscape (http://www.inkscape.org/) -->

<svg
   xmlns:dc="http://purl.org/dc/elements/1.1/"
   xmlns:cc="http://creativecommons.org/ns#"
   xmlns:rdf="http://www.w3.org/1999/02/22-rdf-syntax-ns#"
   xmlns:svg="http://www.w3.org/2000/svg"
   xmlns="http://www.w3.org/2000/svg"
   xmlns:sodipodi="http://sodipodi.sourceforge.net/DTD/sodipodi-0.dtd"
   xmlns:inkscape="http://www.inkscape.org/namespaces/inkscape"
   version="1.1"
   width="155"
   height="40"
   id="svg2"
   inkscape:version="0.48.4 r9939"
   sodipodi:docname="fermer.svg">
  <sodipodi:namedview
     pagecolor="#ffffff"
     bordercolor="#666666"
     borderopacity="1"
     objecttolerance="10"
     gridtolerance="10"
     guidetolerance="10"
     inkscape:pageopacity="0"
     inkscape:pageshadow="2"
     inkscape:window-width="1920"
     inkscape:window-height="1101"
     id="namedview2992"
     showgrid="false"
     inkscape:zoom="8.0258064"
     inkscape:cx="75.443546"
     inkscape:cy="7.7434141"
     inkscape:window-x="0"
     inkscape:window-y="27"
     inkscape:window-maximized="1"
     inkscape:current-layer="svg2" />
  <defs
     id="defs4" />
  <metadata
     id="metadata7">
    <rdf:RDF>
      <cc:Work
         rdf:about="">
        <dc:format>image/svg+xml</dc:format>
        <dc:type
           rdf:resource="http://purl.org/dc/dcmitype/StillImage" />
        <dc:title />
      </cc:Work>
    </rdf:RDF>
  </metadata>
  <g
     transform="matrix(0.88538057,0,0,0.88538057,10.676012,-894.04737)"
     id="layer1">
    <path
       d="m 63.735732,1044.1572 c -0.01389,-0.023 -0.139088,-0.041 -0.278217,-0.041 -0.144444,-2e-4 -0.303174,-0.026 -0.370001,-0.061 -0.06437,-0.034 -0.19659,-0.061 -0.293825,-0.061 -0.09724,0 -0.186952,-0.016 -0.199373,-0.036 -0.01242,-0.02 -0.09165,-0.047 -0.176066,-0.06 -0.384862,-0.058 -0.47748,-0.083 -0.648942,-0.1742 -0.100683,-0.053 -0.206601,-0.097 -0.23537,-0.097 -0.08076,0 -1.273456,-0.6029 -1.331817,-0.6733 -0.02841,-0.034 -0.07016,-0.062 -0.09276,-0.062 -0.09643,0 -1.501574,-1.321 -1.501574,-1.4117 0,-0.026 -0.03916,-0.082 -0.08702,-0.1244 -0.07952,-0.071 -0.234076,-0.282 -0.345641,-0.4716 -0.02447,-0.042 -0.07218,-0.1079 -0.106032,-0.1474 -0.08531,-0.1 -0.564532,-1.0652 -0.564532,-1.1376 0,-0.032 -0.01592,-0.091 -0.03538,-0.1299 -0.04115,-0.082 -0.107646,-0.2732 -0.195716,-0.5613 -0.03435,-0.1123 -0.07915,-0.2362 -0.09955,-0.2752 -0.0204,-0.039 -0.03774,-0.1218 -0.03854,-0.1839 -8.17e-4,-0.062 -0.02773,-0.1589 -0.05984,-0.2151 -0.03212,-0.056 -0.05905,-0.1608 -0.05984,-0.2325 -7.77e-4,-0.072 -0.01983,-0.1417 -0.04231,-0.1556 -0.02247,-0.014 -0.04086,-0.115 -0.04086,-0.2248 0,-0.1097 -0.01839,-0.2108 -0.04086,-0.2247 -0.02247,-0.014 -0.04086,-0.1334 -0.04086,-0.2656 0,-0.1322 -0.01839,-0.2517 -0.04086,-0.2656 -0.02247,-0.014 -0.04144,-0.1942 -0.04216,-0.4008 -9.4e-4,-0.2652 -0.01891,-0.3988 -0.06129,-0.4548 -0.0862,-0.114 -0.08508,-1.7105 0.0013,-1.8616 0.03624,-0.063 0.05895,-0.2213 0.05984,-0.4164 7.76e-4,-0.1728 0.01983,-0.3256 0.04231,-0.3395 0.02247,-0.014 0.04086,-0.115 0.04086,-0.2247 0,-0.1097 0.01645,-0.2097 0.03655,-0.2221 0.0201,-0.012 0.04618,-0.092 0.05796,-0.176 0.03642,-0.261 0.09241,-0.4641 0.233831,-0.8482 0.01655,-0.045 0.05376,-0.1644 0.08269,-0.2655 0.07477,-0.2614 0.713782,-1.5377 0.879679,-1.757 0.07649,-0.1012 0.1583,-0.2285 0.181795,-0.283 0.08127,-0.1884 1.470467,-1.6783 1.564915,-1.6783 0.02069,0 0.106939,-0.06 0.191663,-0.1328 0.335785,-0.2895 1.642072,-0.9595 2.10317,-1.0787 0.04495,-0.012 0.118495,-0.037 0.163441,-0.056 0.0834,-0.035 0.20989,-0.061 0.572042,-0.1156 0.112366,-0.017 0.244462,-0.053 0.293552,-0.08 0.04908,-0.027 0.181305,-0.049 0.293821,-0.049 0.112517,0 0.215942,-0.018 0.22983,-0.041 0.03422,-0.055 1.886203,-0.055 1.920428,0 0.01389,0.022 0.148784,0.041 0.29977,0.041 0.165925,0 0.306402,0.022 0.355116,0.056 0.04433,0.031 0.144951,0.067 0.223607,0.08 0.349007,0.058 0.434005,0.076 0.510752,0.1088 0.04495,0.019 0.118495,0.044 0.163441,0.055 0.336336,0.085 0.924612,0.3674 1.322749,0.6353 0.120738,0.081 0.262102,0.1752 0.314133,0.2089 0.249321,0.1616 1.264569,1.1348 1.48892,1.4273 0.107597,0.1403 0.123442,0.1635 0.396176,0.5792 0.09429,0.1437 0.204497,0.3072 0.244891,0.3634 0.09441,0.1313 0.462157,0.8649 0.462157,0.9219 0,0.024 0.03677,0.1195 0.08172,0.2126 0.04495,0.093 0.08172,0.189 0.08172,0.2133 0,0.024 0.04597,0.1349 0.10215,0.2458 0.05618,0.1108 0.102151,0.2484 0.102151,0.3056 0,0.057 0.01592,0.136 0.03538,0.175 0.07268,0.1458 0.139681,0.3618 0.158313,0.5105 0.01058,0.084 0.03568,0.1636 0.05578,0.1761 0.0201,0.012 0.03655,0.1123 0.03655,0.222 0,0.1097 0.01839,0.2109 0.04086,0.2248 0.02247,0.014 0.04086,0.1334 0.04086,0.2655 0,0.1322 0.01839,0.2517 0.04086,0.2656 0.02247,0.014 0.04086,0.163 0.04086,0.3314 0,0.194 0.02275,0.35 0.06216,0.4262 0.05071,0.098 0.06011,0.2689 0.05107,0.9276 l -0.01109,0.8073 -6.308866,0.01 c -4.580301,0.01 -6.323959,0.023 -6.36397,0.056 -0.0667,0.055 -0.07951,0.9148 -0.01424,0.9551 0.02247,0.014 0.04151,0.1483 0.04231,0.2987 8.58e-4,0.1595 0.02577,0.3159 0.05984,0.3755 0.03212,0.056 0.05905,0.153 0.05984,0.2151 7.76e-4,0.062 0.01804,0.1448 0.03832,0.1838 0.02028,0.039 0.06043,0.1537 0.08922,0.2549 0.06755,0.2372 0.459774,1.0299 0.54438,1.1001 0.03575,0.03 0.065,0.075 0.065,0.1006 0,0.06 1.069212,1.1283 1.129416,1.1283 0.02504,0 0.06958,0.029 0.09898,0.064 0.07012,0.084 0.919329,0.5076 1.018771,0.5076 0.04238,0 0.08841,0.018 0.102297,0.041 0.01389,0.023 0.06905,0.041 0.122581,0.041 0.05353,0 0.108692,0.018 0.12258,0.041 0.01389,0.023 0.09663,0.041 0.183871,0.041 0.08724,0 0.169982,0.018 0.18387,0.041 0.01389,0.023 0.129895,0.042 0.257787,0.042 0.139354,8e-4 0.26432,0.025 0.311849,0.061 0.104075,0.079 1.408805,0.087 1.547562,0.01 0.04909,-0.027 0.199573,-0.064 0.334412,-0.081 0.477614,-0.061 0.59324,-0.083 0.61557,-0.1192 0.01242,-0.02 0.0581,-0.036 0.101493,-0.036 0.09918,0 0.947829,-0.4244 1.018194,-0.5092 0.02869,-0.035 0.0733,-0.063 0.09914,-0.063 0.243813,0 1.291406,-1.489 1.291406,-1.8355 0,-0.044 0.01839,-0.091 0.04086,-0.1053 0.02247,-0.014 0.04086,-0.079 0.04086,-0.1441 0,-0.4053 0.0082,-0.4076 1.492965,-0.4076 l 1.35525,0 -0.01975,0.2146 c -0.01087,0.1179 -0.04494,0.2641 -0.07572,0.3248 -0.03079,0.061 -0.05597,0.1391 -0.05597,0.1742 0,0.035 -0.01669,0.096 -0.03709,0.1348 -0.0204,0.039 -0.0652,0.1629 -0.09955,0.2753 -0.114964,0.376 -0.161618,0.4874 -0.445151,1.0624 -0.155142,0.3146 -0.345542,0.6547 -0.423111,0.7559 -0.07756,0.1011 -0.172793,0.239 -0.21161,0.3064 -0.09625,0.1672 -0.828775,0.9194 -0.895316,0.9194 -0.02944,0 -0.122527,0.061 -0.206867,0.1362 -0.08434,0.075 -0.180924,0.1484 -0.214634,0.1634 -0.03371,0.015 -0.144032,0.09 -0.245161,0.1676 -0.181521,0.1386 -0.70266,0.4097 -0.980644,0.5102 -0.07866,0.028 -0.234946,0.088 -0.347311,0.133 -0.112366,0.045 -0.241075,0.091 -0.286021,0.1018 -0.04495,0.011 -0.118495,0.036 -0.163441,0.055 -0.0834,0.035 -0.20989,0.061 -0.572042,0.1156 -0.112366,0.017 -0.244462,0.053 -0.293552,0.08 -0.04908,0.027 -0.227272,0.049 -0.395971,0.049 -0.1687,0 -0.318093,0.018 -0.331981,0.041 -0.01569,0.025 -0.394603,0.041 -1.001074,0.041 -0.606471,0 -0.985379,-0.015 -1.001074,-0.041 z m 5.6316,-10.685 c -0.01093,-0.3145 -0.07361,-0.6691 -0.127859,-0.7233 -0.0269,-0.027 -0.04891,-0.1177 -0.04891,-0.2018 0,-0.084 -0.01839,-0.1642 -0.04086,-0.1781 -0.02247,-0.014 -0.04086,-0.069 -0.04086,-0.1226 0,-0.053 -0.01839,-0.1087 -0.04086,-0.1226 -0.02247,-0.014 -0.04086,-0.061 -0.04086,-0.1041 0,-0.099 -0.424398,-0.9478 -0.509187,-1.0182 -0.03457,-0.029 -0.06286,-0.074 -0.06286,-0.1 0,-0.026 -0.08274,-0.1289 -0.18387,-0.2282 -0.101129,-0.099 -0.183871,-0.1989 -0.183871,-0.2215 0,-0.056 -0.332855,-0.3914 -0.388171,-0.3914 -0.02435,0 -0.125482,-0.083 -0.224731,-0.1839 -0.09925,-0.1011 -0.201956,-0.1838 -0.228237,-0.1838 -0.02628,0 -0.07235,-0.03 -0.102379,-0.066 -0.06408,-0.077 -0.937835,-0.5063 -1.030996,-0.5063 -0.03502,0 -0.07504,-0.018 -0.08892,-0.041 -0.01389,-0.023 -0.09404,-0.041 -0.178109,-0.041 -0.08407,0 -0.170326,-0.017 -0.191675,-0.037 -0.10495,-0.1 -1.714595,-0.1386 -2.143116,-0.052 -0.123602,0.025 -0.297282,0.058 -0.385961,0.072 -0.08867,0.015 -0.243105,0.071 -0.34318,0.1237 -0.100075,0.053 -0.203537,0.097 -0.229916,0.097 -0.07946,0 -0.531158,0.2312 -0.589829,0.3019 -0.03007,0.036 -0.07249,0.066 -0.09428,0.066 -0.06449,0 -0.264202,0.162 -0.654723,0.5311 -0.326366,0.3085 -0.478411,0.4882 -0.627244,0.7411 -0.02447,0.042 -0.07242,0.1079 -0.106551,0.1474 -0.09597,0.111 -0.482293,0.905 -0.482293,0.9913 0,0.042 -0.01839,0.088 -0.04086,0.1019 -0.02247,0.014 -0.04086,0.069 -0.04086,0.1226 0,0.054 -0.01839,0.1087 -0.04086,0.1226 -0.02247,0.014 -0.04086,0.094 -0.04086,0.1781 0,0.084 -0.02201,0.1749 -0.04891,0.2018 -0.04478,0.045 -0.07907,0.214 -0.141397,0.6977 -0.01631,0.1266 -0.0068,0.189 0.03257,0.214 0.03066,0.02 2.218021,0.031 4.877089,0.026 l 4.821499,-0.01 -0.0071,-0.2043 z m 60.990868,10.6858 c -0.0337,-0.022 -0.16823,-0.041 -0.29892,-0.041 -0.1307,-3e-4 -0.2778,-0.023 -0.32688,-0.05 -0.0491,-0.027 -0.19038,-0.064 -0.31398,-0.083 -0.12361,-0.019 -0.2938,-0.045 -0.37822,-0.057 -0.0844,-0.013 -0.16364,-0.04 -0.17606,-0.06 -0.0124,-0.02 -0.084,-0.037 -0.15902,-0.037 -0.075,0 -0.21645,-0.046 -0.31425,-0.1017 -0.0978,-0.056 -0.20541,-0.1018 -0.23912,-0.1021 -0.0863,-6e-4 -1.28887,-0.603 -1.34938,-0.6759 -0.0274,-0.033 -0.0716,-0.06 -0.0981,-0.06 -0.0266,0 -0.11065,-0.064 -0.18689,-0.143 -0.0762,-0.079 -0.15824,-0.143 -0.18224,-0.143 -0.0573,0 -1.12528,-1.0707 -1.12528,-1.1281 0,-0.024 -0.0388,-0.079 -0.0862,-0.122 -0.0474,-0.043 -0.15098,-0.179 -0.23015,-0.3026 -0.0792,-0.1236 -0.1772,-0.2707 -0.21783,-0.3269 -0.11972,-0.1655 -0.55241,-1.067 -0.60797,-1.2667 -0.0282,-0.1011 -0.0769,-0.2326 -0.10828,-0.2923 -0.0314,-0.06 -0.0571,-0.1459 -0.0571,-0.1917 0,-0.046 -0.0184,-0.094 -0.0409,-0.1084 -0.0225,-0.014 -0.0409,-0.069 -0.0409,-0.1226 0,-0.053 -0.0184,-0.1087 -0.0409,-0.1226 -0.0225,-0.014 -0.0409,-0.097 -0.0409,-0.1839 0,-0.087 -0.0184,-0.1699 -0.0409,-0.1838 -0.0225,-0.014 -0.0415,-0.084 -0.0423,-0.1557 -7.8e-4,-0.072 -0.0277,-0.1763 -0.0598,-0.2325 -0.0321,-0.056 -0.059,-0.1792 -0.0598,-0.2734 -8.2e-4,-0.094 -0.0198,-0.1826 -0.0423,-0.1965 -0.0225,-0.014 -0.0409,-0.1308 -0.0409,-0.2598 0,-0.129 -0.0172,-0.2521 -0.0382,-0.2734 -0.0789,-0.08 -0.15911,-2.5921 -0.0874,-2.7354 0.0226,-0.045 0.0494,-0.2198 0.0596,-0.3884 0.0102,-0.1685 0.0379,-0.4076 0.0616,-0.5312 0.0237,-0.1236 0.0551,-0.2982 0.0699,-0.3881 0.0148,-0.09 0.052,-0.1997 0.0828,-0.2441 0.0308,-0.044 0.056,-0.1257 0.056,-0.1809 0,-0.1037 0.0648,-0.3388 0.1276,-0.4632 0.0197,-0.039 0.0358,-0.1069 0.0358,-0.1508 0,-0.044 0.0184,-0.091 0.0409,-0.1051 0.0225,-0.014 0.0409,-0.06 0.0409,-0.1029 0,-0.087 0.66993,-1.4507 0.76762,-1.5624 0.0345,-0.04 0.0828,-0.1058 0.10725,-0.1474 0.11156,-0.1896 0.26612,-0.4005 0.34564,-0.4716 0.0479,-0.043 0.087,-0.1058 0.087,-0.14 0,-0.075 1.22107,-1.3144 1.29548,-1.3144 0.029,0 0.1239,-0.064 0.21096,-0.143 0.0871,-0.079 0.17681,-0.143 0.19942,-0.143 0.0226,0 0.0655,-0.029 0.0952,-0.065 0.10884,-0.1311 1.53207,-0.8113 1.80535,-0.8628 0.0621,-0.012 0.12292,-0.038 0.13521,-0.057 0.0123,-0.02 0.0937,-0.036 0.18095,-0.036 0.0873,0 0.16999,-0.018 0.18388,-0.041 0.0139,-0.023 0.0989,-0.041 0.18897,-0.041 0.09,0 0.20387,-0.022 0.25296,-0.05 0.20541,-0.1142 2.39439,-0.2154 2.49439,-0.1154 0.0233,0.023 0.1639,0.042 0.31242,0.042 0.17418,0 0.2982,0.021 0.34936,0.06 0.0436,0.033 0.14717,0.061 0.23012,0.061 0.0829,8e-4 0.16218,0.02 0.17607,0.042 0.0139,0.023 0.0734,0.041 0.13231,0.041 0.12233,0 0.34844,0.066 0.50733,0.1482 0.0597,0.031 0.1343,0.056 0.16589,0.056 0.0647,0 0.822,0.3759 0.91827,0.4558 0.0343,0.028 0.0945,0.071 0.13386,0.094 0.19877,0.118 0.40025,0.2689 0.4918,0.3684 0.0562,0.061 0.16651,0.1443 0.24516,0.1851 0.17341,0.09 0.93978,0.8627 0.93978,0.9478 0,0.033 0.0392,0.096 0.087,0.1386 0.0479,0.043 0.1352,0.1497 0.19409,0.2375 0.0589,0.088 0.13465,0.2001 0.16836,0.2493 0.0337,0.049 0.0961,0.1429 0.13865,0.208 0.0425,0.065 0.10789,0.1644 0.1452,0.2206 0.12436,0.1873 0.45163,0.8497 0.45163,0.9142 0,0.035 0.046,0.1459 0.10215,0.2465 0.0562,0.1007 0.10215,0.2111 0.10215,0.2454 0,0.034 0.0368,0.1279 0.0817,0.2079 0.045,0.08 0.0817,0.2082 0.0817,0.2849 0,0.077 0.0184,0.1507 0.0409,0.1646 0.0225,0.014 0.0409,0.053 0.0409,0.088 0,0.035 0.026,0.1209 0.0579,0.1917 0.0318,0.071 0.0694,0.1931 0.0836,0.2718 0.0141,0.079 0.044,0.2441 0.0663,0.3677 0.0223,0.1236 0.0544,0.3351 0.0711,0.4699 0.0168,0.1349 0.0528,0.2853 0.0801,0.3344 0.0273,0.049 0.0496,0.2247 0.0496,0.3902 0,0.1656 0.0188,0.3198 0.0417,0.3427 0.0264,0.026 0.0377,0.3479 0.0307,0.8765 l -0.0111,0.8347 -6.30886,0.01 c -4.5803,0.01 -6.32396,0.023 -6.36397,0.056 -0.0809,0.067 -0.0747,0.8849 0.007,0.9936 0.039,0.051 0.06,0.1758 0.06,0.3551 0,0.1517 0.0184,0.2871 0.0409,0.301 0.0225,0.014 0.0409,0.097 0.0409,0.1839 0,0.087 0.0184,0.17 0.0409,0.1839 0.0225,0.014 0.0409,0.069 0.0409,0.1226 0,0.053 0.0184,0.1086 0.0409,0.1225 0.0225,0.014 0.0409,0.057 0.0409,0.096 0,0.095 0.42867,0.9592 0.50884,1.0257 0.0348,0.029 0.0632,0.073 0.0632,0.099 0,0.06 1.06921,1.1283 1.12941,1.1283 0.025,0 0.0701,0.03 0.10013,0.066 0.0641,0.077 0.93783,0.5062 1.03099,0.5062 0.035,0 0.075,0.018 0.0889,0.041 0.0139,0.023 0.0691,0.041 0.12258,0.041 0.0535,0 0.10869,0.018 0.12258,0.041 0.0139,0.023 0.0966,0.041 0.18387,0.041 0.0872,0 0.16998,0.018 0.18387,0.041 0.0139,0.023 0.12989,0.042 0.25779,0.042 0.13935,8e-4 0.26432,0.025 0.31184,0.061 0.10408,0.079 1.40881,0.087 1.54757,0.01 0.0491,-0.027 0.19957,-0.064 0.33441,-0.081 0.47761,-0.061 0.59324,-0.083 0.61557,-0.1192 0.0124,-0.02 0.0586,-0.036 0.10257,-0.036 0.10162,0 0.94341,-0.4204 1.01533,-0.5071 0.0297,-0.036 0.0751,-0.065 0.10098,-0.065 0.30271,0 1.37307,-1.6344 1.37307,-2.0967 0,-0.038 0.0319,-0.142 0.0709,-0.232 l 0.0709,-0.1638 1.35622,0 1.35623,0 -0.0231,0.235 c -0.0127,0.1292 -0.0449,0.2809 -0.0715,0.3371 -0.0266,0.056 -0.0718,0.1849 -0.10049,0.286 -0.0287,0.1011 -0.0687,0.2158 -0.089,0.2548 -0.0203,0.039 -0.0369,0.1069 -0.0369,0.1508 0,0.044 -0.0184,0.091 -0.0409,0.1052 -0.0225,0.014 -0.0409,0.061 -0.0409,0.1036 0,0.098 -0.55461,1.2034 -0.68231,1.3602 -0.0517,0.064 -0.094,0.1349 -0.094,0.1585 0,0.087 -0.9956,1.1766 -1.07528,1.1766 -0.0212,0 -0.10766,0.06 -0.19222,0.1328 -0.30557,0.2639 -1.21458,0.797 -1.37003,0.8035 -0.0461,0 -0.10123,0.02 -0.12258,0.039 -0.0388,0.036 -0.45626,0.1974 -0.61086,0.2364 -0.0449,0.011 -0.11849,0.036 -0.16344,0.055 -0.0844,0.036 -0.22056,0.063 -0.57204,0.1148 -0.11236,0.016 -0.23188,0.048 -0.26559,0.07 -0.14872,0.096 -2.60745,0.1876 -2.73763,0.1018 z m 5.63096,-10.6813 c 0.007,-0.1098 -0.007,-0.2192 -0.0307,-0.2431 -0.0238,-0.024 -0.044,-0.1178 -0.0448,-0.2088 -7.7e-4,-0.091 -0.0277,-0.2114 -0.0598,-0.2676 -0.0321,-0.056 -0.059,-0.153 -0.0598,-0.2151 -8.2e-4,-0.062 -0.018,-0.1448 -0.0383,-0.1839 -0.0203,-0.039 -0.0602,-0.1537 -0.0886,-0.2548 -0.1187,-0.422 -0.46574,-1.0558 -0.75786,-1.384 -0.0926,-0.104 -0.19762,-0.2467 -0.23348,-0.317 -0.071,-0.1394 -0.28979,-0.342 -0.36921,-0.342 -0.0273,0 -0.13086,-0.083 -0.23011,-0.1839 -0.0992,-0.1011 -0.20195,-0.1838 -0.22823,-0.1838 -0.0263,0 -0.0718,-0.029 -0.10123,-0.064 -0.0701,-0.084 -0.91933,-0.5077 -1.01877,-0.5077 -0.0424,0 -0.0872,-0.016 -0.0996,-0.036 -0.0124,-0.02 -0.0917,-0.047 -0.17607,-0.06 -0.0844,-0.013 -0.26381,-0.045 -0.39864,-0.071 -0.30869,-0.061 -1.6416,-0.063 -1.94086,0 -0.1236,0.025 -0.28909,0.056 -0.36774,0.07 -0.0787,0.014 -0.22824,0.07 -0.33241,0.1244 -0.10418,0.054 -0.21477,0.099 -0.24577,0.099 -0.0835,0 -0.54572,0.2329 -0.60575,0.3052 -0.0285,0.034 -0.0697,0.063 -0.0915,0.063 -0.0645,0 -0.26421,0.162 -0.65473,0.5311 -0.32441,0.3067 -0.47548,0.4848 -0.62521,0.737 -0.0234,0.039 -0.0668,0.1009 -0.0966,0.1367 -0.0761,0.092 -0.49361,0.9337 -0.49399,0.9962 0,0.028 -0.0164,0.084 -0.0362,0.1226 -0.0643,0.1272 -0.1276,0.3604 -0.1276,0.4698 0,0.059 -0.0184,0.1185 -0.0409,0.1324 -0.0225,0.014 -0.0414,0.1115 -0.0422,0.2169 -6.9e-4,0.1054 -0.0283,0.2273 -0.0613,0.271 -0.0724,0.096 -0.079,0.3551 -0.0108,0.4234 0.0379,0.038 1.15488,0.047 4.87258,0.039 l 4.82337,-0.01 0.0127,-0.1998 z m -100.08941,10.3261 c -0.07329,-0.03 -0.07532,-23.3864 -0.002,-23.4596 0.09771,-0.098 15.301361,-0.068 15.353809,0.03 0.04543,0.085 0.06151,2.3567 0.0175,2.4714 -0.02246,0.059 -0.597943,0.065 -6.100422,0.065 -4.671002,0 -6.086955,0.011 -6.124651,0.049 -0.0568,0.057 -0.07194,7.3291 -0.01544,7.418 0.02549,0.04 1.164629,0.053 5.3827,0.061 l 5.350364,0.01 0,1.2871 0,1.2871 -5.362896,0.01 c -2.949592,0.01 -5.367322,0.015 -5.372732,0.021 -0.0054,0.01 -0.0192,2.4279 -0.03064,5.3831 l -0.02081,5.3732 -1.511826,0.01 c -0.831505,0 -1.53481,0 -1.562901,-0.014 z m 42.634171,-5e-4 c -0.01498,-0.015 -0.02724,-3.8394 -0.02724,-8.4989 l 0,-8.4716 1.286662,0 1.286662,0 0.01065,1.7672 c 0.0108,1.7931 0.01973,1.8845 0.158685,1.6254 0.03844,-0.072 0.09457,-0.161 0.124725,-0.1986 0.03015,-0.037 0.09053,-0.1418 0.134169,-0.2317 0.04364,-0.09 0.106203,-0.1957 0.13903,-0.2352 0.03283,-0.04 0.07971,-0.1059 0.104173,-0.1475 0.249174,-0.424 0.459959,-0.6857 0.982561,-1.2197 0.336152,-0.3434 0.634889,-0.6245 0.663859,-0.6245 0.02897,0 0.121673,-0.061 0.206012,-0.1364 0.208028,-0.1851 1.308608,-0.7216 1.480274,-0.7216 0.375144,-0.1169 0.750989,-0.1513 1.14511,-0.225 0.142565,-0.081 1.0728,-0.086 1.139619,-0.01 0.03313,0.04 0.04332,0.4633 0.03565,1.4811 l -0.01075,1.4253 -0.464964,0.012 c -0.73433,0.042 -1.374836,0.22 -2.037223,0.389 -0.553859,0.1019 -1.398688,0.5999 -1.979405,1.1669 -0.12146,0.1186 -0.404936,0.4692 -0.500929,0.6196 -0.06455,0.1012 -0.148236,0.2299 -0.185979,0.2861 -0.134483,0.2001 -0.286331,0.4942 -0.286331,0.5544 0,0.034 -0.04597,0.1519 -0.102151,0.2628 -0.05618,0.1108 -0.10215,0.2378 -0.10215,0.2822 0,0.044 -0.01645,0.091 -0.03655,0.1033 -0.0201,0.012 -0.04697,0.092 -0.05972,0.176 -0.05909,0.3913 -0.08165,0.4859 -0.133792,0.561 -0.03105,0.045 -0.05596,0.182 -0.05596,0.3085 0,0.1253 -0.01705,0.2454 -0.03789,0.2667 -0.07594,0.078 -0.09176,0.8136 -0.108864,5.0624 -0.01363,3.3863 -0.02847,4.336 -0.06813,4.3612 -0.06131,0.039 -2.6611,0.045 -2.699802,0.01 z m 14.292699,-0.024 c -0.01068,-0.028 -0.01469,-3.8756 -0.0089,-8.55 l 0.01048,-8.4989 1.246234,-0.011 c 1.145176,-0.01 1.250464,-0.01 1.298377,0.06 0.03958,0.054 0.05132,0.3496 0.04873,1.2265 -0.0019,0.6355 0.0074,1.1729 0.02067,1.1944 0.0291,0.047 0.144048,0.01 0.144048,-0.047 0,-0.054 0.133274,-0.227 0.418817,-0.5452 0.12922,-0.144 0.234946,-0.2862 0.234946,-0.3159 0,-0.067 0.29204,-0.3566 0.36028,-0.3566 0.02771,0 0.167355,-0.1057 0.310317,-0.235 0.380212,-0.3436 1.516966,-0.9908 1.740365,-0.9908 0.286106,-0.086 0.561702,-0.1564 0.85785,-0.225 0.05618,-0.032 0.195006,-0.059 0.308495,-0.06 0.113489,-8e-4 0.225471,-0.021 0.248851,-0.044 0.0988,-0.099 2.20072,0.01 2.30981,0.1148 0.0276,0.028 0.11904,0.05 0.20311,0.05 0.0841,0 0.16422,0.018 0.17811,0.041 0.0139,0.023 0.0691,0.041 0.12258,0.041 0.0535,0 0.10869,0.018 0.12258,0.041 0.0139,0.023 0.0612,0.041 0.10515,0.041 0.13369,0 1.1124,0.5143 1.24324,0.6534 0.0674,0.072 0.17314,0.1566 0.23494,0.1889 0.0618,0.032 0.11237,0.082 0.11237,0.1104 0,0.029 0.0827,0.133 0.18387,0.2322 0.10113,0.099 0.18387,0.202 0.18387,0.2283 0,0.026 0.0297,0.072 0.0659,0.1024 0.0723,0.06 0.36942,0.6623 0.39119,0.793 0.0238,0.1432 0.18231,0.1261 0.2609,-0.028 0.17963,-0.3525 1.37306,-1.545 1.54619,-1.545 0.0287,0 0.0854,-0.037 0.12612,-0.082 0.0407,-0.045 0.0903,-0.082 0.11024,-0.082 0.02,0 0.15041,-0.074 0.2899,-0.165 0.13949,-0.091 0.29959,-0.1751 0.35577,-0.1873 0.0562,-0.012 0.18738,-0.067 0.29155,-0.121 0.10417,-0.054 0.2272,-0.099 0.2734,-0.099 0.0462,0 0.0954,-0.018 0.10924,-0.041 0.0139,-0.022 0.0691,-0.041 0.12258,-0.041 0.0535,0 0.1087,-0.018 0.12259,-0.041 0.0139,-0.023 0.0931,-0.041 0.17606,-0.042 0.083,-7e-4 0.18651,-0.028 0.23013,-0.061 0.0516,-0.039 0.17587,-0.06 0.35512,-0.06 0.15168,0 0.28716,-0.018 0.30105,-0.041 0.0341,-0.055 1.68201,-0.055 1.71613,0 0.0139,0.022 0.14828,0.041 0.29865,0.042 0.15952,9e-4 0.31594,0.026 0.37554,0.06 0.0562,0.032 0.17921,0.059 0.2734,0.06 0.0942,8e-4 0.1826,0.02 0.19649,0.042 0.0139,0.023 0.0966,0.041 0.18387,0.041 0.0872,0 0.16999,0.018 0.18387,0.041 0.0139,0.023 0.0582,0.041 0.0985,0.041 0.0403,0 0.15968,0.046 0.26534,0.1021 0.10567,0.056 0.21547,0.1022 0.24401,0.1022 0.0825,0 0.53354,0.2293 0.59375,0.3019 0.0301,0.036 0.0762,0.066 0.10244,0.066 0.0263,0 0.12899,0.083 0.22824,0.1839 0.0992,0.1011 0.2006,0.1839 0.22522,0.1839 0.0534,0 0.30596,0.2533 0.30596,0.3068 0,0.021 0.0718,0.1116 0.15967,0.2024 0.17318,0.1789 0.65754,1.0886 0.65754,1.235 0,0.049 0.0184,0.101 0.0409,0.1149 0.0225,0.014 0.0409,0.085 0.0409,0.158 0,0.073 0.027,0.1685 0.06,0.2121 0.0359,0.048 0.0605,0.1725 0.0613,0.3119 7.3e-4,0.1279 0.0197,0.2439 0.0422,0.2578 0.10083,0.062 0.0501,13.337 -0.0511,13.3617 -0.0506,0.012 -0.67113,0.017 -1.37903,0.011 l -1.28709,-0.011 -0.0204,-6.0065 c -0.0132,-3.8812 -0.0348,-6.0281 -0.0611,-6.0677 -0.0224,-0.034 -0.0536,-0.19 -0.0695,-0.3473 -0.0734,-0.728 -0.28027,-1.1731 -0.78388,-1.6868 -0.33177,-0.3385 -0.84166,-0.6627 -1.04209,-0.6627 -0.0449,0 -0.093,-0.018 -0.10688,-0.041 -0.0139,-0.022 -0.11502,-0.041 -0.22473,-0.041 -0.10972,0 -0.21085,-0.018 -0.22473,-0.041 -0.0154,-0.025 -0.32651,-0.041 -0.79678,-0.041 -0.47027,0 -0.78138,0.016 -0.79677,0.041 -0.0139,0.023 -0.11502,0.041 -0.22473,0.041 -0.10972,0 -0.21085,0.018 -0.22473,0.041 -0.0139,0.022 -0.0966,0.041 -0.18388,0.041 -0.0872,0 -0.16998,0.018 -0.18387,0.041 -0.0139,0.022 -0.055,0.041 -0.0914,0.041 -0.0877,0 -0.97355,0.4401 -1.03505,0.5142 -0.0264,0.032 -0.0691,0.058 -0.095,0.058 -0.24381,0 -1.2914,1.489 -1.2914,1.8355 0,0.044 -0.0184,0.091 -0.0409,0.1053 -0.0225,0.014 -0.041,0.056 -0.0411,0.094 0,0.038 -0.0277,0.1217 -0.0613,0.1861 -0.0336,0.064 -0.061,0.215 -0.061,0.3347 0,0.1197 -0.0184,0.229 -0.0409,0.2429 -0.0269,0.017 -0.0409,1.9478 -0.0409,5.6608 0,5.6355 0,5.6355 -0.0919,5.6579 -0.0506,0.012 -0.67113,0.017 -1.37903,0.011 l -1.2871,-0.011 -0.0204,-6.0065 c -0.013,-3.8333 -0.035,-6.0286 -0.0606,-6.0677 -0.0221,-0.034 -0.0538,-0.1716 -0.0705,-0.3065 -0.0578,-0.4671 -0.082,-0.5931 -0.11835,-0.6155 -0.0201,-0.013 -0.0366,-0.059 -0.0366,-0.1028 0,-0.305 -0.8043,-1.386 -1.03124,-1.386 -0.0326,0 -0.0916,-0.036 -0.13097,-0.079 -0.0394,-0.043 -0.17558,-0.1094 -0.30257,-0.1464 -0.127,-0.037 -0.26284,-0.084 -0.30186,-0.1046 -0.039,-0.021 -0.15026,-0.037 -0.2472,-0.037 -0.0969,0 -0.19553,-0.019 -0.21908,-0.043 -0.0539,-0.054 -1.288812,-0.026 -1.60793,0.036 -0.453086,0.088 -0.491736,0.099 -0.513665,0.134 -0.01229,0.02 -0.05206,0.036 -0.08839,0.036 -0.09151,0 -0.659953,0.2812 -0.800544,0.396 -0.06353,0.052 -0.138063,0.094 -0.165643,0.094 -0.02758,0 -0.112513,0.064 -0.18875,0.143 -0.07624,0.079 -0.159669,0.143 -0.185411,0.143 -0.08533,0 -0.66023,0.6592 -0.890837,1.0215 -0.173978,0.2733 -0.476438,0.8919 -0.476438,0.9745 0,0.046 -0.01839,0.094 -0.04086,0.1083 -0.02247,0.014 -0.04086,0.067 -0.04086,0.1172 0,0.05 -0.027,0.1276 -0.05999,0.1712 -0.03299,0.044 -0.06058,0.1656 -0.06129,0.271 -7.36e-4,0.1054 -0.01969,0.203 -0.04216,0.2169 -0.02691,0.017 -0.04086,1.899 -0.04086,5.5142 0,4.9674 -0.0061,5.4912 -0.06463,5.5137 -0.136424,0.052 -2.674498,0.028 -2.694973,-0.026 z m 52.22762,0.024 c -0.015,-0.015 -0.0272,-3.8394 -0.0272,-8.4989 l 0,-8.4716 1.28709,0 1.2871,0 0,1.7774 c 0,1.0617 0.0152,1.7774 0.0378,1.7774 0.0392,0 0.1567,-0.1848 0.36518,-0.5745 0.0668,-0.1249 0.15061,-0.2513 0.18615,-0.2808 0.0356,-0.029 0.0646,-0.072 0.0646,-0.094 0,-0.022 0.0414,-0.092 0.0919,-0.1551 0.0506,-0.063 0.13773,-0.1946 0.1937,-0.292 0.11052,-0.1922 1.296,-1.4232 1.37059,-1.4232 0.0251,0 0.0902,-0.048 0.14472,-0.1064 0.15647,-0.168 1.21169,-0.6818 1.51945,-0.7398 0.0621,-0.012 0.12291,-0.038 0.13521,-0.057 0.0123,-0.02 0.1121,-0.036 0.22181,-0.036 0.10972,0 0.21085,-0.018 0.22473,-0.041 0.0139,-0.023 0.1232,-0.041 0.24291,-0.041 0.1197,0 0.27031,-0.027 0.33468,-0.061 0.16027,-0.084 1.08606,-0.088 1.1545,-0.01 0.0331,0.04 0.0433,0.4633 0.0357,1.4811 l -0.0108,1.4253 -0.46496,0.012 c -0.32666,0.01 -0.49041,0.029 -0.55049,0.072 -0.0545,0.038 -0.18498,0.06 -0.36005,0.06 -0.15098,0 -0.28588,0.018 -0.29977,0.041 -0.0139,0.023 -0.10716,0.041 -0.20726,0.041 -0.10011,0 -0.21394,0.017 -0.25297,0.037 -0.039,0.02 -0.16288,0.065 -0.27525,0.1 -0.85389,0.2611 -1.47429,0.6216 -2.07194,1.204 -0.16248,0.1583 -0.6044,0.7249 -0.6044,0.7748 0,0.021 -0.0414,0.092 -0.0919,0.156 -0.11492,0.1461 -0.27581,0.4605 -0.27581,0.5391 0,0.033 -0.0433,0.1443 -0.0962,0.2484 -0.12147,0.2391 -0.18979,0.4509 -0.18979,0.5883 0,0.059 -0.0184,0.1184 -0.0409,0.1323 -0.0225,0.014 -0.0409,0.081 -0.0409,0.1481 0,0.068 -0.0223,0.163 -0.0496,0.2121 -0.0482,0.087 -0.0705,0.2239 -0.16088,0.9882 -0.027,0.2285 -0.0497,1.998 -0.0599,4.6747 -0.0118,3.0816 -0.0294,4.3227 -0.0619,4.3619 -0.0485,0.059 -2.64759,0.085 -2.70501,0.027 z"
       id="path3068"
       style="fill:#f89205"
       inkscape:connector-curvature="0" />
    <g
       transform="translate(-3.4675391,-47.898029)"
       id="g2996">
      <path
         d="m 7.9224589,1088.8499 c 0.6080124,-1.6107 1.0838355,-1.9166 1.6431581,-2.9153 0.437408,-0.7821 0.713678,-1.6558 1.102649,-2.4633 0.292856,-1.142 0.825634,-2.1525 1.296289,-3.2199 0.211987,-1.036 1.027867,-1.8234 1.221967,-2.8582 0.5152,-0.8127 0.711899,-2.736 2.150022,-1.7748 0.88752,0.9059 0.419335,2.3327 1.411871,3.1923 0.691429,0.9414 1.067124,2.0582 0.754524,3.2267 -0.52976,0.8967 -1.274706,1.7016 -1.383223,2.7752 -0.408416,0.9457 -0.840501,1.8822 -1.106263,2.8746 -0.225439,1.1131 -0.832106,2.1273 -1.298913,3.1532 -0.357585,0.5137 -0.606256,0.7672 -0.749856,0.8561 -1.680418,0.056 -4.8487561,0.104 -4.9984468,0.02 -0.7500006,-0.9713 -0.2653146,-2.1782 -0.043778,-2.8669 z m 19.4040791,2.8839 c -0.822883,0.077 -1.449491,-0.2058 -1.006141,-1.1603 -0.169163,-0.8225 -0.840282,-1.8155 -1.835968,-1.8621 -1.418884,-0.046 -2.854305,0.097 -4.261515,-0.051 -0.585886,-0.8262 0.04296,-1.8634 0.296295,-2.6998 -0.104258,-1.107 0.61044,-2.2124 1.750372,-2.3016 0.418599,-0.2002 1.529512,-0.9599 0.545315,-1.3563 -0.251216,-0.8418 -0.61699,-1.8963 -1.105232,-2.5452 -0.09555,-0.9919 -1.143641,-1.5467 -1.142452,-2.6272 0.127068,-1.0867 -0.516651,-1.3345 -0.64321,-2.3721 -0.29503,-0.8597 -0.881162,-1.4514 -0.983234,-2.3362 -0.296796,-0.6503 -0.860682,-1.0119 -1.142801,-1.7047 -0.908553,-0.4799 -0.156794,-1.6767 -0.06219,-2.0038 1.888178,-0.04 3.861121,-0.095 5.70057,0.029 0.189721,0.01 0.869002,0.3379 0.514459,1.0357 0.168779,0.9237 0.542849,1.7966 0.892434,2.6701 -0.0753,0.9517 0.619956,1.7085 0.901742,2.353 0.205442,0.6714 0.719814,1.4717 1.082902,2.2052 0.273025,0.6605 1.030409,1.6351 1.204672,2.5339 -0.05815,1.009 0.448128,1.7473 0.81758,2.576 0.347695,0.7213 0.697753,1.6426 0.869965,2.488 0.567482,0.8623 1.038632,1.6113 1.323959,2.6156 0.233651,0.2303 0.141363,1.4421 0.667047,1.8585 0.568532,0.8188 1.054285,2.131 -0.211019,2.5027 -0.628751,0.2758 -1.338983,0.099 -1.761551,0.1819 -0.899709,-7e-4 -1.237466,-0.028 -2.121825,-0.051 z"
         id="path3018"
         style="fill:#72855a"
         inkscape:connector-curvature="0" />
    </g>
  </g>
</svg>
