<?xml version="1.0" encoding="UTF-8" standalone="no"?>
<!-- Created with Inkscape (http://www.inkscape.org/) -->

<svg
   xmlns:dc="http://purl.org/dc/elements/1.1/"
   xmlns:cc="http://creativecommons.org/ns#"
   xmlns:rdf="http://www.w3.org/1999/02/22-rdf-syntax-ns#"
   xmlns:svg="http://www.w3.org/2000/svg"
   xmlns="http://www.w3.org/2000/svg"
   xmlns:sodipodi="http://sodipodi.sourceforge.net/DTD/sodipodi-0.dtd"
   xmlns:inkscape="http://www.inkscape.org/namespaces/inkscape"
   id="svg3117"
   version="1.1"
   inkscape:version="0.48.4 r9939"
   width="30"
   height="30"
   sodipodi:docname="nodes.svg">
  <metadata
     id="metadata3123">
    <rdf:RDF>
      <cc:Work
         rdf:about="">
        <dc:format>image/svg+xml</dc:format>
        <dc:type
           rdf:resource="http://purl.org/dc/dcmitype/StillImage" />
        <dc:title />
      </cc:Work>
    </rdf:RDF>
  </metadata>
  <defs
     id="defs3121" />
  <sodipodi:namedview
     pagecolor="#ffffff"
     bordercolor="#666666"
     borderopacity="1"
     objecttolerance="10"
     gridtolerance="10"
     guidetolerance="10"
     inkscape:pageopacity="0"
     inkscape:pageshadow="2"
     inkscape:window-width="1108"
     inkscape:window-height="710"
     id="namedview3119"
     showgrid="false"
     inkscape:zoom="14.75"
     inkscape:cx="24.355569"
     inkscape:cy="14.425923"
     inkscape:window-x="536"
     inkscape:window-y="403"
     inkscape:window-maximized="0"
     inkscape:current-layer="g3143" />
  <g
     id="g3143"
     transform="matrix(0.05863084,0,0,0.05863084,1.0977358,-1.0238337)">
    <path
       style="fill:#ffffff;fill-opacity:1;stroke:none"
       d="m 331.83546,530.45095 c -1.925,-0.40519 -2.825,-0.79631 -2,-0.86915 0.825,-0.0728 -0.4246,-1.08508 -2.77688,-2.24944 -7.99989,-3.95987 -9.22312,-7.62754 -9.22312,-27.65417 0,-9.40337 -0.41627,-18.19191 -0.92504,-19.53009 -1.32819,-3.49339 -156.04124,-175.13437 -158.20237,-175.51207 -2.64591,-0.46243 -2.83864,1.42146 -3.11959,30.49397 -0.39224,40.5873 7.28803,37.26674 -86.253007,37.29152 -80.628178,0.0214 -79.830203,0.11919 -84.594565,-10.37164 -1.023831,-2.25441 -1.923143,-3.42393 -1.998472,-2.59893 -0.07533,0.825 -0.509278,-0.3 -0.964332,-2.5 -1.079995,-5.22133 -1.079995,-157.77867 0,-163 0.455054,-2.2 0.889004,-3.325 0.964332,-2.5 0.07533,0.825 0.974641,-0.34452 1.998472,-2.59893 4.764362,-10.49083 3.966387,-10.393 84.594565,-10.37164 93.923067,0.0249 85.713717,-3.74923 86.552517,39.79104 0.62264,32.31914 0.33549,29.42023 2.87247,28.99908 2.13894,-0.35507 156.69169,-173.942036 158.15659,-177.634646 0.50514,-1.2733 0.91843,-9.78376 0.91843,-18.91214 0,-19.46898 1.27384,-23.21935 9.22312,-27.15416 2.35228,-1.16436 3.60188,-2.16912 2.77688,-2.23281 -0.825,-0.0637 0.3,-0.4881 2.5,-0.94315 10.0878,-2.08659 147.25465,-0.97269 145.92113,1.18499 -0.29654,0.4798 0.1611,0.87237 1.01697,0.87237 2.24678,0 9.48316,6.83811 10.1817,9.62132 0.32645,1.30067 0.93811,2.15191 1.35925,1.89163 2.02075,-1.24889 2.98954,119.250606 1.02095,126.987046 -0.41985,1.65 -0.82649,2.325 -0.90365,1.5 -0.0771,-0.825 -0.99506,0.38274 -2.03981,2.68386 -4.62537,10.1877 -1.30796,9.78047 -82.25841,10.09776 -93.78533,0.3676 -88.78238,2.00117 -88.81344,-28.9995 -0.0161,-16.11239 -0.65158,-19.0608 -3.70622,-17.19696 -2.62821,1.60364 -130.27847,145.67349 -130.27847,147.03612 0,1.60063 128.95644,144.79348 130.78846,145.22711 2.65897,0.62938 3.18073,-2.16704 3.19623,-17.13051 0.0315,-30.416 -4.79749,-28.86641 88.81344,-28.4995 80.95045,0.31729 77.63304,-0.0899 82.25841,10.09776 1.04475,2.30112 1.96266,3.50886 2.03981,2.68386 0.0772,-0.825 0.4838,-0.15 0.90365,1.5 1.96859,7.73644 0.9998,128.23595 -1.02095,126.98705 -0.42114,-0.26027 -1.0328,0.59096 -1.35925,1.89164 -0.69854,2.78321 -7.93492,9.62131 -10.1817,9.62131 -0.85587,0 -1.31351,0.39257 -1.01697,0.87238 1.29927,2.10227 -136.74034,3.16534 -146.42113,1.12762 z"
       id="path3145"
       inkscape:connector-curvature="0" />
  </g>
</svg>
