<?xml version="1.0" encoding="UTF-8" standalone="no"?>
<!-- Svg Vector Icons : http://www.onlinewebfonts.com/icon -->

<svg
   xmlns:dc="http://purl.org/dc/elements/1.1/"
   xmlns:cc="http://creativecommons.org/ns#"
   xmlns:rdf="http://www.w3.org/1999/02/22-rdf-syntax-ns#"
   xmlns:svg="http://www.w3.org/2000/svg"
   xmlns="http://www.w3.org/2000/svg"
   xmlns:sodipodi="http://sodipodi.sourceforge.net/DTD/sodipodi-0.dtd"
   xmlns:inkscape="http://www.inkscape.org/namespaces/inkscape"
   version="1.1"
   x="0px"
   y="0px"
   viewBox="0 0 18 18"
   enable-background="new 0 0 1000 1000"
   xml:space="preserve"
   id="svg2"
   inkscape:version="0.48.4 r9939"
   width="100%"
   height="100%"
   sodipodi:docname="5bdae15f716c49d420218bf0098fea10.svg"><defs
     id="defs12" /><sodipodi:namedview
     pagecolor="#ffffff"
     bordercolor="#666666"
     borderopacity="1"
     objecttolerance="10"
     gridtolerance="10"
     guidetolerance="10"
     inkscape:pageopacity="0"
     inkscape:pageshadow="2"
     inkscape:window-width="1920"
     inkscape:window-height="1161"
     id="namedview10"
     showgrid="false"
     inkscape:zoom="30.208"
     inkscape:cx="20.248659"
     inkscape:cy="11.1325"
     inkscape:window-x="1920"
     inkscape:window-y="0"
     inkscape:window-maximized="1"
     inkscape:current-layer="svg2" /><metadata
     id="metadata4"> Svg Vector Icons : http://www.onlinewebfonts.com/icon <rdf:RDF><cc:Work
     rdf:about=""><dc:format>image/svg+xml</dc:format><dc:type
       rdf:resource="http://purl.org/dc/dcmitype/StillImage" /><dc:title></dc:title></cc:Work></rdf:RDF></metadata><g
     id="g6"
     transform="matrix(0.01799306,0,0,0.01799306,0.05444465,-0.05843528)"
     style="fill:#ffffff"><path
       d="M 979.3,928.4 718.5,667.2 c 57.9,-69.6 92.8,-159 92.8,-256.7 C 811.3,188.9 631.9,9.2 410.7,9.2 189.4,9.2 10,188.9 10,410.5 c 0,221.6 179.4,401.3 400.6,401.3 97.5,0 186.8,-34.9 256.3,-92.9 l 260.8,261.3 c 7.1,7.1 16.5,10.7 25.8,10.7 9.3,0 18.7,-3.6 25.8,-10.7 14.3,-14.4 14.3,-37.5 0,-51.8 z M 410.6,738.7 C 230,738.7 83,591.5 83,410.5 83,229.5 230,82.3 410.7,82.3 c 180.7,0 327.7,147.2 327.7,328.2 -0.1,181 -147.1,328.2 -327.8,328.2 z"
       id="path8"
       inkscape:connector-curvature="0"
       style="fill:#ffffff" /></g></svg>