<?xml version="1.0" encoding="UTF-8" standalone="no"?>
<!-- Created with Inkscape (http://www.inkscape.org/) -->

<svg
   xmlns:dc="http://purl.org/dc/elements/1.1/"
   xmlns:cc="http://creativecommons.org/ns#"
   xmlns:rdf="http://www.w3.org/1999/02/22-rdf-syntax-ns#"
   xmlns:svg="http://www.w3.org/2000/svg"
   xmlns="http://www.w3.org/2000/svg"
   xmlns:sodipodi="http://sodipodi.sourceforge.net/DTD/sodipodi-0.dtd"
   xmlns:inkscape="http://www.inkscape.org/namespaces/inkscape"
   width="30"
   height="30"
   id="svg4100"
   version="1.1"
   inkscape:version="0.48.4 r9939"
   sodipodi:docname="terminal.svg">
  <defs
     id="defs4102" />
  <sodipodi:namedview
     id="base"
     pagecolor="#ffffff"
     bordercolor="#666666"
     borderopacity="1.0"
     inkscape:pageopacity="0.0"
     inkscape:pageshadow="2"
     inkscape:zoom="22.4"
     inkscape:cx="21.598111"
     inkscape:cy="17.676264"
     inkscape:document-units="px"
     inkscape:current-layer="layer1"
     showgrid="false"
     inkscape:window-width="1920"
     inkscape:window-height="1101"
     inkscape:window-x="0"
     inkscape:window-y="27"
     inkscape:window-maximized="1" />
  <metadata
     id="metadata4105">
    <rdf:RDF>
      <cc:Work
         rdf:about="">
        <dc:format>image/svg+xml</dc:format>
        <dc:type
           rdf:resource="http://purl.org/dc/dcmitype/StillImage" />
        <dc:title></dc:title>
      </cc:Work>
    </rdf:RDF>
  </metadata>
  <g
     inkscape:label="Layer 1"
     inkscape:groupmode="layer"
     id="layer1"
     transform="translate(0,-1022.3622)">
    <g
       id="g4145"
       transform="translate(0.50507632,-4.1037452)" />
    <path
       id="path2988"
       d="m 27.560594,1022.5363 -25.1428497,0 c -1.157291,0 -2.05059415,0.7817 -2.05059415,1.939 l -4e-8,25.5282 c 0,1.1573 0.93794609,2.0952 2.09523709,2.0952 l 25.1428498,0 c 1.157291,0 2.097304,-0.9201 2.095237,-2.0952 l -0.04464,-25.372 c -0.002,-1.1573 -0.937946,-2.0952 -2.09524,-2.0952 z m -24.6101117,10.1131 3.1413678,-3.1413 -3.1413678,-3.1414 1.5706835,-1.5706 4.7120519,4.712 -4.7120519,4.712 z m 12.5654707,1.5707 -6.2827353,0 0,-1.5707 6.2827353,0 z"
       inkscape:connector-curvature="0"
       sodipodi:nodetypes="ssssssssscccccccccccc"
       style="fill:#ffffff" />
  </g>
</svg>
