<?xml version="1.0" encoding="UTF-8" standalone="no"?>
<!-- Created with Inkscape (http://www.inkscape.org/) -->

<svg
   xmlns:dc="http://purl.org/dc/elements/1.1/"
   xmlns:cc="http://creativecommons.org/ns#"
   xmlns:rdf="http://www.w3.org/1999/02/22-rdf-syntax-ns#"
   xmlns:svg="http://www.w3.org/2000/svg"
   xmlns="http://www.w3.org/2000/svg"
   xmlns:sodipodi="http://sodipodi.sourceforge.net/DTD/sodipodi-0.dtd"
   xmlns:inkscape="http://www.inkscape.org/namespaces/inkscape"
   width="34"
   height="30"
   id="svg3197"
   version="1.1"
   inkscape:version="0.48.4 r9939"
   sodipodi:docname="users.svg">
  <defs
     id="defs3199" />
  <sodipodi:namedview
     id="base"
     pagecolor="#ffffff"
     bordercolor="#666666"
     borderopacity="1.0"
     inkscape:pageopacity="0.0"
     inkscape:pageshadow="2"
     inkscape:zoom="31.678384"
     inkscape:cx="19.525133"
     inkscape:cy="9.3602547"
     inkscape:document-units="px"
     inkscape:current-layer="g3226"
     showgrid="false"
     inkscape:window-width="1920"
     inkscape:window-height="1161"
     inkscape:window-x="1920"
     inkscape:window-y="0"
     inkscape:window-maximized="1" />
  <metadata
     id="metadata3202">
    <rdf:RDF>
      <cc:Work
         rdf:about="">
        <dc:format>image/svg+xml</dc:format>
        <dc:type
           rdf:resource="http://purl.org/dc/dcmitype/StillImage" />
        <dc:title></dc:title>
      </cc:Work>
    </rdf:RDF>
  </metadata>
  <g
     inkscape:label="Layer 1"
     inkscape:groupmode="layer"
     id="layer1"
     transform="translate(0,-1022.3622)">
    <g
       id="g3226"
       transform="matrix(0.08198126,0,0,0.08079803,-3.9101995,1014.7916)"
       style="fill:#000000">
      <g
         id="g3212"
         style="fill:#ffffff">
        <path
           id="path3214"
           d="m 112.066,319.819 c 21.252,-14.114 44.849,-21.851 67.67,-29.382 3.279,-1.078 6.554,-2.137 9.813,-3.239 l 0.668,-0.221 c 4.822,-1.689 9.393,-3.284 13.134,-5.345 0.169,-0.394 0.411,-1.049 0.7,-2.135 -18.788,-27.428 -31.554,-69.82 -31.554,-106.136 0,-30.807 9.682,-53.629 27.941,-67.526 -7.894,-3.991 -17.416,-5.527 -27.663,-5.527 -27.307,0 -49.442,10.91 -49.442,50.082 0,26.007 9.755,57.906 24.296,76.43 -0.135,1.464 -0.308,2.931 -0.571,4.388 -0.867,3.979 -2.261,8.437 -5.981,10.646 -4.174,2.478 -8.81,4.051 -13.372,5.649 -18.912,6.365 -38.472,11.975 -55.258,23.121 -8.727,5.745 -14.639,15.713 -17.9,25.506 -3.359,10.163 -4.733,38.20395 -4.526,46.20395 l 37.467111,-0.12024 C 95.868797,329.54923 108.354,322.258 112.066,319.819 z"
           inkscape:connector-curvature="0"
           style="fill:#ffffff"
           sodipodi:nodetypes="ccccccscssccccccccc" />
        <path
           id="path3216"
           d="m 457.457,296.129 c -3.263,-9.793 -9.178,-19.379 -17.9,-25.125 -16.79,-11.145 -36.352,-16.946 -55.262,-23.307 -4.563,-1.598 -9.197,-3.267 -13.366,-5.746 -3.726,-2.213 -5.121,-6.715 -5.982,-10.698 -0.382,-2.108 -0.619,-4.25 -0.736,-6.378 13.712,-18.761 22.809,-49.369 22.809,-74.471 0,-39.18 -22.137,-50.097 -49.443,-50.097 -10.385,0 -20.009,1.594 -27.967,5.706 18.105,13.913 27.697,36.684 27.697,67.366 0,35.358 -11.861,76.072 -29.895,103.673 0.049,0.313 0.097,0.619 0.153,0.925 0.475,2.141 0.864,3.259 1.106,3.814 3.955,2.205 8.687,3.935 13.973,5.794 l 7.919,2.639 c 23.412,7.773 47.621,15.722 69.428,30.19 8.5323,4.99285 18.13675,13.96861 20.74972,18.02743 l 41.67256,0 c 0.208,-7.999 -1.60028,-32.14943 -4.95628,-42.31243 z"
           inkscape:connector-curvature="0"
           style="fill:#ffffff"
           sodipodi:nodetypes="ccccccsscsccccccccc" />
      </g>
      <path
         id="path3218"
         d="m 414.744,368.006 c -4.354,-13.059 -12.239,-25.999 -23.867,-33.668 -22.386,-14.854 -48.47,-22.674 -73.685,-31.155 -6.084,-2.133 -12.264,-4.395 -17.82,-7.701 -4.969,-2.953 -6.827,-8.97 -7.979,-14.28 -0.507,-2.816 -0.824,-5.678 -0.981,-8.519 18.282,-25.013 30.413,-65.829 30.413,-99.3 0,-52.24 -29.516,-66.796 -65.926,-66.796 -36.408,0 -65.922,14.541 -65.922,66.776 0,34.67 13.006,77.204 32.395,101.912 -0.181,1.947 -0.41,3.902 -0.76,5.842 -1.159,5.303 -3.018,11.249 -7.975,14.194 -5.568,3.308 -11.749,5.399 -17.832,7.532 -25.215,8.489 -51.297,15.965 -73.677,30.827 -11.636,7.661 -19.52,21.277 -23.867,34.336 -4.48,13.551 -6.311,76.94572 -6.035,89.94572 l 164.772,0 164.773,0 c 0.282,-13 -1.552,-76.39572 -6.027,-89.94572 z"
         inkscape:connector-curvature="0"
         sodipodi:nodetypes="ccccccsssccsccccccc"
         style="fill:#ffffff" />
    </g>
  </g>
</svg>
