<?xml version="1.0" encoding="UTF-8" standalone="no"?>
<!-- Created with Inkscape (http://www.inkscape.org/) -->

<svg
   xmlns:dc="http://purl.org/dc/elements/1.1/"
   xmlns:cc="http://creativecommons.org/ns#"
   xmlns:rdf="http://www.w3.org/1999/02/22-rdf-syntax-ns#"
   xmlns:svg="http://www.w3.org/2000/svg"
   xmlns="http://www.w3.org/2000/svg"
   xmlns:sodipodi="http://sodipodi.sourceforge.net/DTD/sodipodi-0.dtd"
   xmlns:inkscape="http://www.inkscape.org/namespaces/inkscape"
   width="30"
   height="30"
   id="svg3197"
   version="1.1"
   inkscape:version="0.48.4 r9939"
   sodipodi:docname="users.svg">
  <defs
     id="defs3199" />
  <sodipodi:namedview
     id="base"
     pagecolor="#ffffff"
     bordercolor="#666666"
     borderopacity="1.0"
     inkscape:pageopacity="0.0"
     inkscape:pageshadow="2"
     inkscape:zoom="31.678384"
     inkscape:cx="18.205352"
     inkscape:cy="13.883506"
     inkscape:document-units="px"
     inkscape:current-layer="g3226"
     showgrid="false"
     inkscape:window-width="1920"
     inkscape:window-height="1101"
     inkscape:window-x="0"
     inkscape:window-y="27"
     inkscape:window-maximized="1" />
  <metadata
     id="metadata3202">
    <rdf:RDF>
      <cc:Work
         rdf:about="">
        <dc:format>image/svg+xml</dc:format>
        <dc:type
           rdf:resource="http://purl.org/dc/dcmitype/StillImage" />
        <dc:title />
      </cc:Work>
    </rdf:RDF>
  </metadata>
  <g
     inkscape:label="Layer 1"
     inkscape:groupmode="layer"
     id="layer1"
     transform="translate(0,-1022.3622)">
    <g
       id="g3226"
       transform="matrix(0.08198126,0,0,0.08079803,-3.9101995,1014.7916)"
       style="fill:#000000">
      <g
         id="g3212"
         style="fill:#ffffff"
         transform="matrix(0.8804957,0,0,0.8804957,4.4350901,19.800988)">
        <path
           id="path3214"
           d="m 112.066,319.819 c 21.252,-14.114 44.849,-21.851 67.67,-29.382 3.279,-1.078 6.554,-2.137 9.813,-3.239 l 0.668,-0.221 c 4.822,-1.689 9.393,-3.284 13.134,-5.345 0.169,-0.394 0.411,-1.049 0.7,-2.135 -18.788,-27.428 -31.554,-69.82 -31.554,-106.136 0,-30.807 9.682,-53.629 27.941,-67.526 -7.894,-3.991 -17.416,-5.527 -27.663,-5.527 -27.307,0 -49.442,10.91 -49.442,50.082 0,26.007 9.755,57.906 24.296,76.43 -0.135,1.464 -0.308,2.931 -0.571,4.388 -0.867,3.979 -2.261,8.437 -5.981,10.646 -4.174,2.478 -8.81,4.051 -13.372,5.649 -18.912,6.365 -38.472,11.975 -55.258,23.121 -8.727,5.745 -14.639,15.713 -17.9,25.506 -3.359,10.163 -5.634158,64.5884 -5.427158,72.5884 L 87.488111,342.21371 C 95.868797,329.54923 108.354,322.258 112.066,319.819 z"
           inkscape:connector-curvature="0"
           style="fill:#ffffff"
           sodipodi:nodetypes="ccccccscssccccccccc" />
        <path
           id="path3216"
           d="m 457.457,296.129 c -3.263,-9.793 -9.178,-19.379 -17.9,-25.125 -16.79,-11.145 -36.352,-16.946 -55.262,-23.307 -4.563,-1.598 -9.197,-3.267 -13.366,-5.746 -3.726,-2.213 -5.121,-6.715 -5.982,-10.698 -0.382,-2.108 -0.619,-4.25 -0.736,-6.378 13.712,-18.761 22.809,-49.369 22.809,-74.471 0,-39.18 -22.137,-50.097 -49.443,-50.097 -10.385,0 -20.009,1.594 -27.967,5.706 18.105,13.913 27.697,36.684 27.697,67.366 0,35.358 -11.861,76.072 -29.895,103.673 0.049,0.313 0.097,0.619 0.153,0.925 0.475,2.141 0.864,3.259 1.106,3.814 3.955,2.205 8.687,3.935 13.973,5.794 l 7.919,2.639 c 23.412,7.773 47.621,15.722 69.428,30.19 8.5323,4.99285 18.13675,13.96861 20.74972,18.02743 l 43.97624,29.92689 c 0.208,-7.999 -3.90396,-62.07632 -7.25996,-72.23932 z"
           inkscape:connector-curvature="0"
           style="fill:#ffffff"
           sodipodi:nodetypes="ccccccsscsccccccccc" />
      </g>
      <path
         id="path3218"
         d="m 369.6154,343.82869 c -3.83368,-11.49839 -10.77639,-22.89201 -21.01479,-29.64453 -19.71078,-13.07888 -42.67763,-19.96436 -64.87933,-27.43184 -5.35693,-1.8781 -10.7984,-3.86978 -15.69043,-6.7807 -4.37519,-2.60011 -6.01115,-7.89805 -7.02548,-12.57348 -0.44641,-2.47948 -0.72553,-4.99945 -0.86376,-7.50094 16.09722,-22.02384 26.77851,-57.96215 26.77851,-87.43323 0,-45.99709 -25.98871,-58.81359 -58.04756,-58.81359 -32.05709,0 -58.04404,12.80329 -58.04404,58.79598 0,30.52679 11.45173,67.97779 28.52366,89.73308 -0.15937,1.71433 -0.361,3.4357 -0.66917,5.14386 -1.0205,4.66927 -2.65734,9.90469 -7.02196,12.49775 -4.9026,2.91268 -10.34494,4.7538 -15.701,6.6319 -22.2017,7.47453 -45.16678,14.05711 -64.87228,27.14304 -10.24545,6.74548 -17.187273,18.73431 -21.014788,30.2327 -3.944621,11.9316 -15.568229,99.39654 -15.325212,110.84299 l 154.70741,-0.78139 153.93817,0 c 0.24829,-11.44645 -9.83773,-98.13088 -13.77795,-110.0616 z"
         inkscape:connector-curvature="0"
         sodipodi:nodetypes="ccccccsssccsccccccc"
         style="fill:#ffffff" />
    </g>
  </g>
</svg>
