<?xml version="1.0" encoding="UTF-8" standalone="no"?>
<svg
   xmlns:dc="http://purl.org/dc/elements/1.1/"
   xmlns:cc="http://creativecommons.org/ns#"
   xmlns:rdf="http://www.w3.org/1999/02/22-rdf-syntax-ns#"
   xmlns:svg="http://www.w3.org/2000/svg"
   xmlns="http://www.w3.org/2000/svg"
   xmlns:sodipodi="http://sodipodi.sourceforge.net/DTD/sodipodi-0.dtd"
   xmlns:inkscape="http://www.inkscape.org/namespaces/inkscape"
   version="1.1"
   x="0"
   y="0"
   viewBox="0 0 240 240"
   enable-background="new 0 0 240 240"
   xml:space="preserve"
   id="svg2"
   inkscape:version="0.48.4 r9939"
   width="100%"
   height="100%"
   sodipodi:docname="afterfx.svg"><metadata
     id="metadata17"><rdf:RDF><cc:Work
         rdf:about=""><dc:format>image/svg+xml</dc:format><dc:type
           rdf:resource="http://purl.org/dc/dcmitype/StillImage" /></cc:Work></rdf:RDF></metadata><defs
     id="defs15" /><sodipodi:namedview
     pagecolor="#ffffff"
     bordercolor="#666666"
     borderopacity="1"
     objecttolerance="10"
     gridtolerance="10"
     guidetolerance="10"
     inkscape:pageopacity="0"
     inkscape:pageshadow="2"
     inkscape:window-width="977"
     inkscape:window-height="688"
     id="namedview13"
     showgrid="false"
     inkscape:zoom="1.9666667"
     inkscape:cx="72.287813"
     inkscape:cy="92.369405"
     inkscape:window-x="0"
     inkscape:window-y="27"
     inkscape:window-maximized="0"
     inkscape:current-layer="svg2" /><radialGradient
     id="a"
     cx="97.71"
     cy="81.286"
     r="143.432"
     gradientUnits="userSpaceOnUse"
     gradientTransform="translate(0,4)"><stop
       data-use-luminance-on-grayscale="true"
       offset="0"
       stop-color="#100027"
       stop-opacity=".85"
       id="stop5" /><stop
       data-use-luminance-on-grayscale="true"
       offset=".767"
       stop-color="#100027"
       id="stop7" /></radialGradient><path
     clip-rule="evenodd"
     d="M 10,14 H 230 V 228 H 10 z"
     id="path9"
     style="fill:url(#a);fill-rule:evenodd"
     inkscape:connector-curvature="0" /><path
     clip-rule="evenodd"
     d="M 0,4 V 238 H 240 V 4 H 0 z M 10,14 H 230 V 228 H 10 V 14 z m 57.836,122.5 -7.92,29.865 C 59.75,167.189 59.42,167.5 58.43,167.5 H 43.746 c -0.99,0 -1.156,-0.33 -0.99,-1.485 l 28.38,-99.33 c 0.495,-1.814 0.825,-3.246 0.99,-8.195 0,-0.66 0.33,-0.99 0.825,-0.99 h 20.956 c 0.658,0 0.99,0.165 1.155,0.99 l 31.846,107.69 c 0.164,0.825 0,1.32 -0.826,1.32 h -16.5 c -0.824,0 -1.32,-0.31 -1.484,-0.97 L 99.848,136.5 H 67.838 z M 95.9,120.265 C 93.096,109.21 86.314,84.965 83.84,73.25 h -0.164 c -2.145,11.714 -7.56,31.496 -11.686,47.005 l 23.91,0.01 z m 53.605,10.234 c 0.166,13.53 6.6,22.605 21.78,22.605 5.94,0 11.03,-0.785 16.31,-3.096 0.66,-0.33 1.156,-0.165 1.156,0.66 v 12.54 c 0,0.99 -0.33,1.485 -0.99,1.98 -5.278,2.64 -11.855,3.794 -20.105,3.794 -26.4,0 -36.3,-19.47 -36.3,-41.25 0,-23.594 12.21,-42.9 33.662,-42.9 21.78,0 29.37,18.316 29.37,33.165 0,4.785 -0.33,8.746 -0.825,10.56 -0.166,0.824 -0.496,1.115 -1.32,1.28 -1.98,0.33 -7.92,0.66 -16.667,0.66 h -26.07 z m 20.295,-13.75 c 5.115,0 6.93,0 7.426,-0.165 0,-0.66 0.166,-1.226 0.166,-1.72 0,-5.446 -2.64,-15.44 -13.035,-15.44 -9.57,0 -13.696,8.414 -14.686,17.325 h 20.13 z"
     id="path11"
     inkscape:connector-curvature="0"
     style="fill:#d3a4ff;fill-rule:evenodd" /></svg>