<svg version="1.1" xmlns="http://www.w3.org/2000/svg" x="0" y="0" viewBox="0 0 240 240" enable-background="new 0 0 240 240" xml:space="preserve"><radialGradient id="a" cx="97.71" cy="81.286" r="143.432" gradientUnits="userSpaceOnUse"><stop data-use-luminance-on-grayscale="true" offset="0" stop-color="#100027" stop-opacity=".85"/><stop data-use-luminance-on-grayscale="true" offset=".767" stop-color="#100027"/></radialGradient><path fill-rule="evenodd" clip-rule="evenodd" fill="url(#a)" d="M10 10h220v214H10z"/><path fill-rule="evenodd" clip-rule="evenodd" fill="#D3A4FF" d="M0 0v234h240V0H0zm10 10h220v214H10V10zM67.836 132.5l-7.92 29.865c-.166.824-.496 1.135-1.486 1.135H43.746c-.99 0-1.156-.33-.99-1.485l28.38-99.33c.495-1.814.825-3.246.99-8.195 0-.66.33-.99.825-.99h20.956c.658 0 .99.165 1.155.99l31.846 107.69c.164.825 0 1.32-.826 1.32h-16.5c-.824 0-1.32-.31-1.484-.97l-8.25-30.03h-32.01zM95.9 116.265c-2.804-11.055-9.586-35.3-12.06-47.015h-.164c-2.145 11.714-7.56 31.496-11.686 47.005l23.91.01zm53.605 10.234c.166 13.53 6.6 22.605 21.78 22.605 5.94 0 11.03-.785 16.31-3.096.66-.33 1.156-.165 1.156.66v12.54c0 .99-.33 1.485-.99 1.98-5.278 2.64-11.855 3.794-20.105 3.794-26.4 0-36.3-19.47-36.3-41.25 0-23.594 12.21-42.9 33.662-42.9 21.78 0 29.37 18.316 29.37 33.165 0 4.785-.33 8.746-.825 10.56-.166.824-.496 1.115-1.32 1.28-1.98.33-7.92.66-16.667.66h-26.07zm20.295-13.75c5.115 0 6.93 0 7.426-.165 0-.66.166-1.226.166-1.72 0-5.446-2.64-15.44-13.035-15.44-9.57 0-13.696 8.414-14.686 17.325h20.13z"/></svg>