<?xml version="1.0" encoding="UTF-8" standalone="no"?>
<!-- Created with Inkscape (http://www.inkscape.org/) -->

<svg
   xmlns:dc="http://purl.org/dc/elements/1.1/"
   xmlns:cc="http://creativecommons.org/ns#"
   xmlns:rdf="http://www.w3.org/1999/02/22-rdf-syntax-ns#"
   xmlns:svg="http://www.w3.org/2000/svg"
   xmlns="http://www.w3.org/2000/svg"
   xmlns:sodipodi="http://sodipodi.sourceforge.net/DTD/sodipodi-0.dtd"
   xmlns:inkscape="http://www.inkscape.org/namespaces/inkscape"
   width="48"
   height="48"
   id="svg2996"
   version="1.1"
   inkscape:version="0.48.4 r9939"
   sodipodi:docname="blender.svg">
  <defs
     id="defs2998" />
  <sodipodi:namedview
     id="base"
     pagecolor="#ffffff"
     bordercolor="#666666"
     borderopacity="1.0"
     inkscape:pageopacity="0.0"
     inkscape:pageshadow="2"
     inkscape:zoom="11.2"
     inkscape:cx="-14.295197"
     inkscape:cy="19.171772"
     inkscape:document-units="px"
     inkscape:current-layer="layer1"
     showgrid="false"
     inkscape:window-width="1920"
     inkscape:window-height="1101"
     inkscape:window-x="0"
     inkscape:window-y="27"
     inkscape:window-maximized="1" />
  <metadata
     id="metadata3001">
    <rdf:RDF>
      <cc:Work
         rdf:about="">
        <dc:format>image/svg+xml</dc:format>
        <dc:type
           rdf:resource="http://purl.org/dc/dcmitype/StillImage" />
        <dc:title></dc:title>
      </cc:Work>
    </rdf:RDF>
  </metadata>
  <g
     inkscape:label="Layer 1"
     inkscape:groupmode="layer"
     id="layer1"
     transform="translate(0,-1004.3622)">
    <path
       style="fill:#ff8800;fill-opacity:1;stroke:none"
       d="m 24.938713,1008.6452 c -1.950116,-0.015 -3.259731,2.4558 -2.211847,3.2797 l 6.07546,4.9315 c -0.466643,0.056 -0.927874,0.1311 -1.381218,0.2232 l -16.788211,0 c -4.9102499,0.3098 -4.4645976,4.903 -0.598053,4.8271 l 8.600576,0 c -0.200226,0.2121 -0.391775,0.4277 -0.579069,0.6503 l -16.6980277,13.1809 c -2.3704349,1.9074 0.5080576,6.1274 3.4696596,4.2339 l 9.8014291,-7.8839 c 0.167287,8.1917 7.41304,14.7852 16.332553,14.7852 9.024411,0 16.631577,-6.7113 16.631577,-15.0368 0,-5.7776 -3.665515,-10.8146 -8.923335,-13.3565 l -11.980054,-9.1607 c -0.609602,-0.4794 -1.205408,-0.6721 -1.75144,-0.6739 z m 5.918829,13.4656 c 5.337535,0 9.953315,3.9851 9.953315,8.8522 0,4.8671 -4.61578,8.7715 -9.953315,8.7715 -5.337538,0 -9.663783,-3.9425 -9.663783,-8.8095 0,-4.867 4.326245,-8.8142 9.663783,-8.8142 z"
       id="path4052"
       inkscape:connector-curvature="0" />
    <path
       sodipodi:type="arc"
       style="fill:#214c93;fill-opacity:1;stroke:none"
       id="path4571"
       sodipodi:cx="405.89285"
       sodipodi:cy="478.82144"
       sodipodi:rx="42.67857"
       sodipodi:ry="39.821426"
       d="m 448.57142,478.82144 a 42.67857,39.821426 0 1 1 -85.35714,0 42.67857,39.821426 0 1 1 85.35714,0 z"
       transform="matrix(0.15188656,0,0,0.14916213,-30.377154,959.19039)" />
  </g>
</svg>
