<?xml version="1.0" encoding="UTF-8" standalone="no"?>
<!-- Created with Inkscape (http://www.inkscape.org/) -->

<svg
   xmlns:dc="http://purl.org/dc/elements/1.1/"
   xmlns:cc="http://creativecommons.org/ns#"
   xmlns:rdf="http://www.w3.org/1999/02/22-rdf-syntax-ns#"
   xmlns:svg="http://www.w3.org/2000/svg"
   xmlns="http://www.w3.org/2000/svg"
   xmlns:sodipodi="http://sodipodi.sourceforge.net/DTD/sodipodi-0.dtd"
   xmlns:inkscape="http://www.inkscape.org/namespaces/inkscape"
   width="1024"
   height="1024"
   id="svg4033"
   version="1.1"
   inkscape:version="0.48.5 r10040"
   sodipodi:docname="drawing.svg">
  <defs
     id="defs4035" />
  <sodipodi:namedview
     id="base"
     pagecolor="#ffffff"
     bordercolor="#666666"
     borderopacity="1.0"
     inkscape:pageopacity="0.0"
     inkscape:pageshadow="2"
     inkscape:zoom="0.49497475"
     inkscape:cx="38.859952"
     inkscape:cy="424.51069"
     inkscape:document-units="px"
     inkscape:current-layer="layer1"
     showgrid="false"
     inkscape:window-width="1920"
     inkscape:window-height="1018"
     inkscape:window-x="-8"
     inkscape:window-y="-8"
     inkscape:window-maximized="1" />
  <metadata
     id="metadata4038">
    <rdf:RDF>
      <cc:Work
         rdf:about="">
        <dc:format>image/svg+xml</dc:format>
        <dc:type
           rdf:resource="http://purl.org/dc/dcmitype/StillImage" />
        <dc:title></dc:title>
      </cc:Work>
    </rdf:RDF>
  </metadata>
  <g
     inkscape:label="Layer 1"
     inkscape:groupmode="layer"
     id="layer1"
     transform="translate(0,-28.362183)">
    <path
       style="fill:#ff8800;fill-opacity:1;stroke:none"
       d="m 526.79293,142.32571 c -39.66073,-0.13706 -66.29524,49.94669 -44.98377,66.70342 l 123.56061,100.29648 c -9.49042,1.15736 -18.8708,2.65679 -28.09074,4.53698 l -341.43274,0 c -99.86292,6.30101 -90.79941,99.71675 -12.16299,98.17277 l 174.9155,0 c -4.07212,4.31572 -7.96777,8.70191 -11.77688,13.22485 L 47.223293,693.32883 c -48.20908562,38.79148 10.332696,124.61609 70.564697,86.10631 L 317.12601,619.09592 c 3.40222,166.59917 150.76379,300.69635 332.1657,300.69635 183.53533,0 338.24718,-136.49469 338.24718,-305.81252 0,-117.50118 -74.54795,-219.94423 -181.47966,-271.6403 L 562.41314,156.03321 c -12.39791,-9.75045 -24.51519,-13.66913 -35.62021,-13.7075 z m 120.37508,273.86052 c 108.55294,0 202.42704,81.04752 202.42704,180.03168 0,98.98416 -93.8741,178.39063 -202.42704,178.39063 -108.55294,0 -196.53861,-80.17873 -196.53861,-179.16289 0,-98.98416 87.98567,-179.25942 196.53861,-179.25942 z"
       id="path4052"
       inkscape:connector-curvature="0" />
    <path
       sodipodi:type="arc"
       style="fill:#214c93;fill-opacity:1;stroke:none"
       id="path4571"
       sodipodi:cx="405.89285"
       sodipodi:cy="478.82144"
       sodipodi:rx="42.67857"
       sodipodi:ry="39.821426"
       d="m 448.57142,478.82144 a 42.67857,39.821426 0 1 1 -85.35714,0 42.67857,39.821426 0 1 1 85.35714,0 z"
       transform="matrix(3.0890154,0,0,3.033607,-598.20164,-863.46771)" />
  </g>
</svg>
