<?xml version="1.0" encoding="UTF-8" standalone="no"?>
<!-- Created with Inkscape (http://www.inkscape.org/) -->

<svg
   xmlns:dc="http://purl.org/dc/elements/1.1/"
   xmlns:cc="http://creativecommons.org/ns#"
   xmlns:rdf="http://www.w3.org/1999/02/22-rdf-syntax-ns#"
   xmlns:svg="http://www.w3.org/2000/svg"
   xmlns="http://www.w3.org/2000/svg"
   xmlns:sodipodi="http://sodipodi.sourceforge.net/DTD/sodipodi-0.dtd"
   xmlns:inkscape="http://www.inkscape.org/namespaces/inkscape"
   width="48"
   height="48"
   id="svg3283"
   version="1.1"
   inkscape:version="0.48.4 r9939"
   sodipodi:docname="generic.svg">
  <defs
     id="defs3285" />
  <sodipodi:namedview
     id="base"
     pagecolor="#ffffff"
     bordercolor="#666666"
     borderopacity="1.0"
     inkscape:pageopacity="0.0"
     inkscape:pageshadow="2"
     inkscape:zoom="7.9195959"
     inkscape:cx="46.487864"
     inkscape:cy="5.8928064"
     inkscape:document-units="px"
     inkscape:current-layer="XMLID_1_"
     showgrid="false"
     inkscape:window-width="1920"
     inkscape:window-height="1101"
     inkscape:window-x="0"
     inkscape:window-y="27"
     inkscape:window-maximized="1" />
  <metadata
     id="metadata3288">
    <rdf:RDF>
      <cc:Work
         rdf:about="">
        <dc:format>image/svg+xml</dc:format>
        <dc:type
           rdf:resource="http://purl.org/dc/dcmitype/StillImage" />
        <dc:title />
      </cc:Work>
    </rdf:RDF>
  </metadata>
  <g
     inkscape:label="Layer 1"
     inkscape:groupmode="layer"
     id="layer1"
     transform="translate(0,-1004.3622)">
    <g
       id="XMLID_1_"
       transform="translate(-16.992849,974.53101)">
      <path
         d="m 36.632857,53.803571 c 0,2.392857 1.914286,4.402857 4.402857,4.402857 2.392857,0 4.402857,-1.914286 4.402857,-4.402857 0,-2.392857 -1.914286,-4.402857 -4.402857,-4.402857 -2.392857,0 -4.402857,2.01 -4.402857,4.402857 z"
         class="st2"
         id="XMLID_8_"
         inkscape:connector-curvature="0"
         style="fill:#cccccc;fill-opacity:1" />
      <path
         d="m 62.284285,52.463571 c 0,-0.478571 -0.478571,-1.052857 -0.957142,-1.244286 l -4.02,-1.435714 c -0.478572,-0.191429 -1.052858,-0.765714 -1.244286,-1.244286 l -0.67,-1.627143 c -0.191429,-0.478571 -0.191429,-1.244285 0,-1.722857 l 1.818571,-3.828571 C 57.402857,40.882142 57.307143,40.212142 57.02,39.829285 L 55.105714,37.915 c -0.382857,-0.382858 -1.148571,-0.478572 -1.531429,-0.191429 l -3.828571,1.818571 c -0.478571,0.191429 -1.244286,0.191429 -1.722857,0 l -1.531429,-0.67 c -0.478571,-0.191428 -1.052857,-0.765714 -1.244285,-1.244285 l -1.435715,-4.02 C 43.62,33.129285 43.045714,32.650714 42.567143,32.650714 c 0,0 -0.574286,-0.09571 -1.34,-0.09571 -0.765715,0 -1.34,0.09571 -1.34,0.09571 -0.478572,0 -1.052858,0.478571 -1.244286,0.957143 l -1.627143,3.924285 C 36.824285,38.010714 36.25,38.585 35.771428,38.776428 l -1.531428,0.67 c -0.478572,0.191429 -1.244286,0.191429 -1.722857,0 L 28.688571,37.627857 C 28.21,37.436428 27.54,37.532142 27.157143,37.819285 l -1.914286,1.914286 C 24.86,40.116428 24.764285,40.882142 25.051428,41.265 L 26.87,45.093571 c 0.191428,0.478571 0.191428,1.244286 0,1.722857 l -0.67,1.531429 c -0.191429,0.478571 -0.765715,1.052857 -1.244286,1.244285 l -4.02,1.627143 c -0.478571,0.191429 -0.957143,0.765715 -0.957143,1.244286 0,0 -0.09571,0.574286 -0.09571,1.34 0,0.765714 0.09571,1.34 0.09571,1.34 0,0.478571 0.478572,1.052857 0.957143,1.244286 l 4.02,1.435714 C 25.434285,58.015 26.008571,58.589285 26.2,59.067857 l 0.67,1.531428 c 0.191428,0.478572 0.191428,1.244286 0,1.722857 l -1.818572,3.828572 c -0.191428,0.478571 -0.09571,1.148571 0.191429,1.531428 l 1.914286,1.914286 C 27.54,69.979285 28.305714,70.075 28.688571,69.787857 l 3.828572,-1.818572 c 0.478571,-0.191428 1.244285,-0.191428 1.722857,0 l 1.531428,0.67 C 36.25,68.830714 36.824285,69.405 37.015714,69.883571 l 1.435714,4.02 c 0.191429,0.478571 0.765715,0.957143 1.244286,0.957143 0,0 0.574286,0.09571 1.34,0.09571 0.765714,0 1.34,-0.09571 1.34,-0.09571 0.478571,0 1.052857,-0.478572 1.244286,-0.957143 l 1.435714,-4.02 C 45.247143,69.405 45.821428,68.830714 46.3,68.639285 l 1.531428,-0.67 c 0.478572,-0.191428 1.244286,-0.191428 1.722857,0 l 3.828572,1.818572 c 0.478571,0.191428 1.148571,0.09571 1.531428,-0.191429 l 1.914286,-1.914286 C 57.211428,67.299285 57.307143,66.533571 57.02,66.150714 l -1.627143,-3.732857 c -0.191429,-0.478572 -0.191429,-1.244286 0,-1.722857 l 0.67,-1.531429 c 0.191428,-0.478571 0.765714,-1.052857 1.244286,-1.244286 l 4.02,-1.435714 c 0.478571,-0.191429 0.957142,-0.765714 0.957142,-1.244286 0,0 0.09571,-0.574285 0.09571,-1.34 0,-0.765714 -0.09571,-1.435714 -0.09571,-1.435714 z M 41.035714,63.566428 c -5.36,0 -9.762857,-4.402857 -9.762857,-9.762857 0,-5.36 4.402857,-9.762857 9.762857,-9.762857 5.36,0 9.762857,4.402857 9.762857,9.762857 0,5.36 -4.402857,9.762857 -9.762857,9.762857 z"
         class="st3"
         id="XMLID_11_"
         inkscape:connector-curvature="0"
         style="fill:#b3b3b3" />
    </g>
  </g>
  <style
     id="style3292"
     type="text/css">
	.st0{fill:#76C2AF;}
	.st1{fill:#65A192;}
	.st2{fill:#4F5D73;}
	.st3{fill:#FFFFFF;}
</style>
</svg>
