<?xml version="1.0" encoding="UTF-8" standalone="no"?>
<!-- Created with Inkscape (http://www.inkscape.org/) -->

<svg
   xmlns:dc="http://purl.org/dc/elements/1.1/"
   xmlns:cc="http://creativecommons.org/ns#"
   xmlns:rdf="http://www.w3.org/1999/02/22-rdf-syntax-ns#"
   xmlns:svg="http://www.w3.org/2000/svg"
   xmlns="http://www.w3.org/2000/svg"
   xmlns:sodipodi="http://sodipodi.sourceforge.net/DTD/sodipodi-0.dtd"
   xmlns:inkscape="http://www.inkscape.org/namespaces/inkscape"
   width="48"
   height="48"
   id="svg2"
   version="1.1"
   inkscape:version="0.48.4 r9939"
   sodipodi:docname="New document 1">
  <defs
     id="defs4" />
  <sodipodi:namedview
     id="base"
     pagecolor="#ffffff"
     bordercolor="#666666"
     borderopacity="1.0"
     inkscape:pageopacity="0.0"
     inkscape:pageshadow="2"
     inkscape:zoom="11.2"
     inkscape:cx="12.148769"
     inkscape:cy="24.385736"
     inkscape:document-units="px"
     inkscape:current-layer="layer1"
     showgrid="false"
     inkscape:window-width="1464"
     inkscape:window-height="809"
     inkscape:window-x="0"
     inkscape:window-y="27"
     inkscape:window-maximized="0" />
  <metadata
     id="metadata7">
    <rdf:RDF>
      <cc:Work
         rdf:about="">
        <dc:format>image/svg+xml</dc:format>
        <dc:type
           rdf:resource="http://purl.org/dc/dcmitype/StillImage" />
        <dc:title></dc:title>
      </cc:Work>
    </rdf:RDF>
  </metadata>
  <g
     inkscape:label="Layer 1"
     inkscape:groupmode="layer"
     id="layer1"
     transform="translate(0,-1004.3622)">
    <g
       id="g3014"
       transform="matrix(1.0191073,0,0,1.0191073,-471.94779,-16.561473)">
      <path
         style="fill:#f8b01f"
         d="m 484.79926,1048.6992 c -2.04413,-0.1499 -5.43869,-0.949 -6.95431,-1.6373 -0.38129,-0.1731 -0.92843,-0.412 -1.21588,-0.5309 -0.81298,-0.3363 -3.00951,-1.6634 -4.04886,-2.4465 -2.00162,-1.5079 -4.2645,-3.9599 -5.74938,-6.23 -1.45248,-2.2204 -2.83082,-5.8882 -3.31364,-8.8175 -0.41275,-2.5042 -0.24696,-6.86 0.35233,-9.2567 0.59505,-2.3796 1.95382,-5.4575 3.27109,-7.4096 3.57665,-5.3004 8.97061,-8.8653 15.20616,-10.0497 1.89799,-0.3606 6.14464,-0.4319 7.82645,-0.1314 5.30247,0.9474 9.3392,3.0145 12.9533,6.6333 3.55862,3.5631 5.59055,7.423 6.56636,12.4732 0.33273,1.7221 0.33673,6.2414 0.007,7.9921 -1.13456,6.0246 -3.89366,10.6329 -8.68886,14.512 -0.89473,0.7238 -2.72958,1.9544 -2.91407,1.9544 -0.0412,0 -0.31101,0.1489 -0.59945,0.331 -1.29389,0.8168 -4.62026,1.949 -6.91095,2.3524 -1.20833,0.2128 -4.45169,0.3592 -5.78735,0.2612 z m 6.26962,-2.9174 c 3.88347,-0.8859 7.40859,-2.82 10.21127,-5.6024 3.06585,-3.0438 5.0147,-6.6685 5.8557,-10.8912 0.41155,-2.0665 0.41535,-5.8072 0.008,-7.8632 -0.80447,-4.0601 -2.45878,-7.2623 -5.36591,-10.3869 -2.96227,-3.1838 -6.75016,-5.2889 -11.19131,-6.2194 -1.16355,-0.2437 -1.91898,-0.3041 -3.85824,-0.3084 -2.82899,-0.01 -4.23588,0.2072 -6.61409,1.0031 -4.26768,1.4283 -7.38203,3.6827 -10.28681,7.4462 -1.63756,2.1217 -2.94677,5.0436 -3.64266,8.1298 -0.2832,1.256 -0.32664,1.8105 -0.32922,4.2027 -0.003,3.0938 0.15507,4.1675 0.98601,6.683 0.52782,1.5979 1.73751,3.9992 2.72962,5.4185 2.98221,4.266 7.7152,7.3528 12.95445,8.4486 1.36218,0.2849 1.80886,0.3122 4.4094,0.2697 2.29689,-0.037 3.14943,-0.1055 4.13381,-0.3301 z m -0.0374,-2.1848 c -0.0963,-0.039 -0.26801,-0.2517 -0.38151,-0.4711 -0.17848,-0.3452 -0.18691,-0.8324 -0.0623,-3.6047 0.0792,-1.7631 0.20409,-4.1977 0.27752,-5.4102 0.21302,-3.5174 0.17508,-5.272 -0.12843,-5.9403 -0.25336,-0.5579 -2.8851,-3.4809 -5.32535,-5.9147 -1.79511,-1.7903 -1.31521,-1.7029 -9.61684,-1.7512 l -6.7311,-0.039 -0.2763,-0.3412 c -0.21357,-0.2638 -0.26218,-0.4824 -0.21414,-0.9628 0.0847,-0.8462 0.9337,-2.6804 2.00992,-4.3419 1.86094,-2.873 6.03555,-6.3766 8.04747,-6.754 1.05782,-0.1985 1.38849,0.066 5.35299,4.2737 2.05244,2.1787 2.51438,2.4324 4.75595,2.6126 1.61154,0.1295 2.49788,-0.015 2.78492,-0.4526 0.2388,-0.3645 0.5465,-3.1006 0.56832,-5.0536 0.0117,-1.0539 0.31425,-1.7634 0.82023,-1.924 1.15374,-0.3662 5.12511,2.0906 7.59494,4.6984 1.69903,1.794 3.21675,4.1819 3.8773,6.1003 0.32577,0.9463 0.32409,1.4146 -0.007,1.8235 -0.25842,0.3195 -0.31622,0.3265 -3.27261,0.3965 -4.10199,0.097 -4.09349,0.091 -4.08264,2.8681 0.01,2.5351 0.16315,2.8758 2.29262,5.0972 3.8701,4.0373 3.91118,4.0852 4.01124,4.6774 0.13953,0.8259 -0.0916,1.4448 -1.09595,2.9342 -1.99663,2.9611 -4.98833,5.4016 -8.33225,6.7969 -1.3825,0.5769 -2.48583,0.8395 -2.8674,0.6826 z m 2.70139,-20.2549 c 0.76412,-0.4924 0.89705,-1.9062 0.29091,-3.0944 -0.38535,-0.7553 -1.57312,-2.0092 -2.21207,-2.3352 -1.95538,-0.9975 -3.43202,-0.4235 -3.42851,1.3329 0.002,0.908 0.50311,1.941 1.40423,2.8938 1.32785,1.4041 2.89292,1.8812 3.94544,1.2029 z"
         id="path3016"
         inkscape:connector-curvature="0" />
    </g>
  </g>
</svg>
