<?xml version="1.0" encoding="UTF-8" standalone="no"?>
<!-- Created with Inkscape (http://www.inkscape.org/) -->

<svg
   xmlns:dc="http://purl.org/dc/elements/1.1/"
   xmlns:cc="http://creativecommons.org/ns#"
   xmlns:rdf="http://www.w3.org/1999/02/22-rdf-syntax-ns#"
   xmlns:svg="http://www.w3.org/2000/svg"
   xmlns="http://www.w3.org/2000/svg"
   xmlns:sodipodi="http://sodipodi.sourceforge.net/DTD/sodipodi-0.dtd"
   xmlns:inkscape="http://www.inkscape.org/namespaces/inkscape"
   width="25"
   height="31"
   id="svg3101"
   version="1.1"
   inkscape:version="0.48.4 r9939"
   sodipodi:docname="tasks.svg">
  <defs
     id="defs3103" />
  <sodipodi:namedview
     id="base"
     pagecolor="#000000"
     bordercolor="#666666"
     borderopacity="1.0"
     inkscape:pageopacity="0"
     inkscape:pageshadow="2"
     inkscape:zoom="15.839192"
     inkscape:cx="33.440071"
     inkscape:cy="15.843844"
     inkscape:document-units="px"
     inkscape:current-layer="layer1"
     showgrid="false"
     inkscape:window-width="1920"
     inkscape:window-height="1101"
     inkscape:window-x="0"
     inkscape:window-y="27"
     inkscape:window-maximized="1" />
  <metadata
     id="metadata3106">
    <rdf:RDF>
      <cc:Work
         rdf:about="">
        <dc:format>image/svg+xml</dc:format>
        <dc:type
           rdf:resource="http://purl.org/dc/dcmitype/StillImage" />
        <dc:title />
      </cc:Work>
    </rdf:RDF>
  </metadata>
  <g
     inkscape:label="Layer 1"
     inkscape:groupmode="layer"
     id="layer1"
     transform="translate(0,-1021.3622)">
    <g
       id="g3151"
       transform="matrix(0.06209322,0,0,0.06032974,-32.111586,971.82323)"
       style="fill:#ffffff">
      <path
         style="fill:#ffffff"
         d="m 576.8424,1332.0296 c -17.52441,-4.2418 -32.45578,-19.1137 -37.10289,-36.9551 -1.34638,-5.1691 -1.53119,-26.7689 -1.53119,-178.9585 0,-190.90406 -0.41534,-178.28045 6.28119,-190.90552 6.69769,-12.62725 21.11398,-23.1372 35.34679,-25.76896 10.01579,-1.85201 9.37202,-3.63533 9.37202,25.96162 0,28.68715 0.64624,32.93663 5.99169,39.39933 1.67702,2.02754 5.62744,4.95254 8.77872,6.5 l 5.72959,2.81356 107.5,0 107.5,0 5.72959,-2.81356 c 3.15128,-1.54746 7.07622,-4.44726 8.7221,-6.444 5.55391,-6.73785 6.04831,-9.92187 6.04831,-38.95196 0,-30.16606 -0.65413,-28.31891 9.37202,-26.46499 14.23281,2.63176 28.6491,13.14171 35.34679,25.76896 6.69653,12.62507 6.28119,0.001 6.28119,190.90552 0,190.7872 0.40739,178.3271 -6.23823,190.7956 -6.58662,12.3578 -20.55626,22.7084 -34.56099,25.6074 -3.70318,0.7666 -45.5677,1.0719 -139,1.0137 -111.85895,-0.07 -134.65906,-0.3153 -139.5667,-1.5031 z m 267.11972,-177.6674 0.2538,-127.7538 -127.2538,0.2538 -127.2538,0.2538 -0.25722,126.5 c -0.14146,69.575 -0.0424,127.0642 0.22009,127.7538 0.37986,0.9979 26.36011,1.2021 127.25722,1 l 126.77991,-0.2538 0.2538,-127.7538 z m -222.38709,49.3358 c -4.62087,-2.8177 -6.36671,-5.898 -6.36671,-11.2333 0,-6.386 4.45377,-11.3556 11.02904,-12.3063 2.45903,-0.3556 33.49596,-0.5106 68.97096,-0.3444 61.42439,0.2876 64.63357,0.3925 67.30111,2.2005 7.75818,5.2582 7.44004,16.7399 -0.59966,21.642 -3.09113,1.8848 -5.51021,1.952 -70.20145,1.952 -64.19484,0 -67.13118,-0.08 -70.13329,-1.9105 z m 1.04848,-50.5034 c -7.25396,-3.1584 -9.97702,-13.052 -5.24729,-19.0649 4.48951,-5.7075 0.98038,-5.5137 99.8321,-5.5137 98.85172,0 95.34259,-0.1938 99.8321,5.5137 2.97963,3.788 2.97963,11.1846 0,14.9726 -4.49237,5.7112 -0.94527,5.5171 -100.04998,5.4746 -74.13719,-0.032 -91.86152,-0.2914 -94.36693,-1.3823 z m 0.61944,-50.8745 c -4.6904,-1.6297 -8.03463,-6.7771 -8.03463,-12.3667 0,-3.5777 0.61851,-5.0417 3.42296,-8.1021 l 3.42296,-3.7353 93.32704,-0.2664 c 68.41611,-0.1954 94.06648,0.039 96.09729,0.8797 9.28719,3.8425 10.4554,16.7783 2.03086,22.4882 -2.69536,1.8268 -6.27435,1.9062 -94.80111,2.1026 -69.59569,0.1544 -92.84391,-0.089 -95.46537,-1 z m 11.46537,-154.62496 c -11.32551,-2.8107 -19.43244,-12.78436 -19.47804,-23.96309 -0.0307,-7.51362 1.71256,-12.53284 6.07331,-17.48691 3.76561,-4.27796 6.4142,-5.76683 17.34562,-9.7506 7.25261,-2.64308 13.94107,-9.02946 17.67687,-16.87851 1.43977,-3.025 4.49506,-12.86257 6.78954,-21.86127 2.29448,-8.9987 5.23871,-18.46676 6.54274,-21.04015 3.1271,-6.17102 10.30065,-12.68509 15.51578,-14.08938 2.75075,-0.7407 14.31342,-1.01442 34.34064,-0.81295 33.27969,0.3348 32.98174,0.28226 39.59421,6.98158 5.13996,5.20748 7.79454,11.52426 12.20782,29.04936 7.18136,28.51721 11.45054,34.15628 31.24664,41.27308 10.25804,3.68782 16.63569,12.90113 16.61314,23.99973 -0.0199,9.80455 -5.09337,17.83958 -14.41536,22.83023 l -4.05291,2.16977 -81.5,0.16182 c -44.825,0.089 -82.85,-0.17322 -84.5,-0.58271 z m 94.80256,-52.84642 c 11.95447,-6.67242 16.53824,-21.97094 10.23506,-34.15994 -1.8815,-3.63841 -8.95351,-9.93075 -13.11594,-11.66992 -4.81557,-2.01207 -15.06987,-1.75475 -19.92168,0.49992 -5.07492,2.35836 -10.91673,8.43448 -13.0729,13.59725 -2.21739,5.30937 -2.18433,15.11423 0.066,19.55794 4.07653,8.05004 8.96821,12.25946 17.50695,15.06518 4.53241,1.48929 12.79301,0.18474 18.30256,-2.89043 z"
         id="path3153"
         inkscape:connector-curvature="0" />
    </g>
  </g>
</svg>
