/* XPM */
static char *magick[] = {
/* columns rows colors chars-per-pixel */
"32 32 256 2",
"   c Gray0",
".  c #efefef",
"X  c #838383",
"o  c #5b5b5b",
"O  c #272727",
"+  c Gray77",
"@  c #b7b7b7",
"#  c #7b7b7b",
"$  c Gray64",
"%  c Gray28",
"&  c #dfdfdf",
"*  c Gray60",
"=  c Gray40",
"-  c #3a3a3a",
";  c Gray100",
":  c #d7d7d7",
">  c Gray74",
",  c Gray56",
"<  c Gray40",
"1  c Gray80",
"2  c #afafaf",
"3  c Gray20",
"4  c #555555",
"5  c Gray46",
"6  c #414141",
"7  c Gray0",
"8  c Gray0",
"9  c Gray0",
"0  c Gray0",
"q  c Gray0",
"w  c Gray0",
"e  c Gray0",
"r  c Gray0",
"t  c Gray0",
"y  c Gray0",
"u  c Gray0",
"i  c Gray0",
"p  c Gray0",
"a  c Gray0",
"s  c Gray0",
"d  c Gray0",
"f  c Gray0",
"g  c Gray0",
"h  c Gray0",
"j  c Gray0",
"k  c Gray0",
"l  c Gray0",
"z  c Gray0",
"x  c Gray0",
"c  c Gray0",
"v  c Gray0",
"b  c Gray0",
"n  c Gray0",
"m  c Gray0",
"M  c Gray0",
"N  c Gray0",
"B  c Gray0",
"V  c Gray0",
"C  c Gray0",
"Z  c Gray0",
"A  c Gray0",
"S  c Gray0",
"D  c Gray0",
"F  c Gray0",
"G  c Gray0",
"H  c Gray0",
"J  c Gray0",
"K  c Gray0",
"L  c Gray0",
"P  c Gray0",
"I  c Gray0",
"U  c Gray0",
"Y  c Gray0",
"T  c Gray0",
"R  c Gray0",
"E  c Gray0",
"W  c Gray0",
"Q  c Gray0",
"!  c Gray0",
"~  c Gray0",
"^  c Gray0",
"/  c Gray0",
"(  c Gray0",
")  c Gray0",
"_  c Gray0",
"`  c Gray0",
"'  c Gray0",
"]  c Gray0",
"[  c Gray0",
"{  c Gray0",
"}  c Gray0",
"|  c Gray0",
" . c Gray0",
".. c Gray0",
"X. c Gray0",
"o. c Gray0",
"O. c Gray0",
"+. c Gray0",
"@. c Gray0",
"#. c Gray0",
"$. c Gray0",
"%. c Gray0",
"&. c Gray0",
"*. c Gray0",
"=. c Gray0",
"-. c Gray0",
";. c Gray0",
":. c Gray0",
">. c Gray0",
",. c Gray0",
"<. c Gray0",
"1. c Gray0",
"2. c Gray0",
"3. c Gray0",
"4. c Gray0",
"5. c Gray0",
"6. c Gray0",
"7. c Gray0",
"8. c Gray0",
"9. c Gray0",
"0. c Gray0",
"q. c Gray0",
"w. c Gray0",
"e. c Gray0",
"r. c Gray0",
"t. c Gray0",
"y. c Gray0",
"u. c Gray0",
"i. c Gray0",
"p. c Gray0",
"a. c Gray0",
"s. c Gray0",
"d. c Gray0",
"f. c Gray0",
"g. c Gray0",
"h. c Gray0",
"j. c Gray0",
"k. c Gray0",
"l. c Gray0",
"z. c Gray0",
"x. c Gray0",
"c. c Gray0",
"v. c Gray0",
"b. c Gray0",
"n. c Gray0",
"m. c Gray0",
"M. c Gray0",
"N. c Gray0",
"B. c Gray0",
"V. c Gray0",
"C. c Gray0",
"Z. c Gray0",
"A. c Gray0",
"S. c Gray0",
"D. c Gray0",
"F. c Gray0",
"G. c Gray0",
"H. c Gray0",
"J. c Gray0",
"K. c Gray0",
"L. c Gray0",
"P. c Gray0",
"I. c Gray0",
"U. c Gray0",
"Y. c Gray0",
"T. c Gray0",
"R. c Gray0",
"E. c Gray0",
"W. c Gray0",
"Q. c Gray0",
"!. c Gray0",
"~. c Gray0",
"^. c Gray0",
"/. c Gray0",
"(. c Gray0",
"). c Gray0",
"_. c Gray0",
"`. c Gray0",
"'. c Gray0",
"]. c Gray0",
"[. c Gray0",
"{. c Gray0",
"}. c Gray0",
"|. c Gray0",
" X c Gray0",
".X c Gray0",
"XX c Gray0",
"oX c Gray0",
"OX c Gray0",
"+X c Gray0",
"@X c Gray0",
"#X c Gray0",
"$X c Gray0",
"%X c Gray0",
"&X c Gray0",
"*X c Gray0",
"=X c Gray0",
"-X c Gray0",
";X c Gray0",
":X c Gray0",
">X c Gray0",
",X c Gray0",
"<X c Gray0",
"1X c Gray0",
"2X c Gray0",
"3X c Gray0",
"4X c Gray0",
"5X c Gray0",
"6X c Gray0",
"7X c Gray0",
"8X c Gray0",
"9X c Gray0",
"0X c Gray0",
"qX c Gray0",
"wX c Gray0",
"eX c Gray0",
"rX c Gray0",
"tX c Gray0",
"yX c Gray0",
"uX c Gray0",
"iX c Gray0",
"pX c Gray0",
"aX c Gray0",
"sX c Gray0",
"dX c Gray0",
"fX c Gray0",
"gX c Gray0",
"hX c Gray0",
"jX c Gray0",
"kX c Gray0",
"lX c Gray0",
"zX c Gray0",
"xX c Gray0",
"cX c Gray0",
"vX c Gray0",
"bX c Gray0",
"nX c Gray0",
"mX c Gray0",
"MX c Gray0",
"NX c Gray0",
"BX c Gray0",
"VX c Gray0",
"CX c Gray0",
"ZX c Gray0",
"AX c Gray0",
"SX c Gray0",
"DX c Gray0",
"FX c Gray0",
"GX c Gray0",
"HX c Gray0",
"JX c Gray0",
"KX c Gray0",
"LX c Gray0",
"PX c Gray0",
"IX c Gray0",
"UX c Gray0",
/* pixels */
"; ; ; ; ; ; ; ; ; ; ; ;                                         ",
";         ;           ;   # ; ; ; ; ; ; ; ; ; ; ; ; ; ; ; ; ;   ",
";   ; ;   ; O O O O   ;   # # # # # ; ; ; ; ; ; ; ; ; ; ; ; ;   ",
";   ; ;   ; O O O O   ;   # ; ; ; ; ; ; ; ; ; > > & 2 > . ; ;   ",
";   ; ;   ; 3 3 3 3   ;   # ; ; ; ; ; ; ; ; ; > > > & > & ; ;   ",
";         ; - - - -   ;   # ; ; ; ; ; ; ; & ; & > . 1 > & ; ;   ",
"; ; ; ; ; ; 6 6 6 6   ;   # # # ; ; ; ; ; ; ; ; ; ; ; ; ; ; ;   ",
"; ; ; ; ; ; % % % %   ;   # ; ; ; ; ; ; ; ; ; ; ; ; ; ; ; ; ;   ",
"; ; ; ; ; ; % % % %   ;   # ; ; ; ; ; ; ; ; ; ; ; ; ; ; ; ; ;   ",
"; ; ; ; ; ; 4 4 4 4   ;   # ; ; ; ; ; ; ; ; ; ; ; ; ; ; ; ; ;   ",
"; ; ; ; ; ; o o o o   ;   # # # # # # # # ; ; 2 X X > X o ; ;   ",
"; ; ; ; ; ; = = = =   ;   # ; ; ; ; ; ; ; ; ; = * 5 1 * 5 ; ;   ",
"; ; ; ; ; ; = = = =   ;   # ; ; ; ; ; ; ; ; ; = X = ; o & ; ;   ",
"; ; ; ; ; ; 5 5 5 5   ;   # ; ; ; ; ; ; ; & ; = o o 1 = ; ; ;   ",
"; ; ; ; ; ; 5 5 5 5   ;   # # # ; ; ; ; ; ; ; ; ; ; ; ; ; ; ;   ",
"; ; ; ; ; ; # # # #   ;   # ; ; ; ; ; ; ; ; ; ; ; ; ; ; ; ; ;   ",
"; ; ; ; ; ; X X X X   ;   # ; ; ; ; ; ; ; ; ; ; ; ; ; ; ; ; ;   ",
"; ; ; ; ; ; X X X X   ;   # ; ; ; ; ; ; ; ; ; ; ; ; ; ; ; ; ;   ",
"; ; ; ; ; ; , , , ,   ;   # # # # ; ; ; ; ; ; ; ; ; ; ; ; ; ;   ",
"; ; ; ; ; ; * * * *   ;   # ; ; ; ; ; ; ; ; ; 1 > ; 2 > . ; ;   ",
"; ; ; ; ; ; * * * *   ;   # ; ; ; ; ; ; ; ; ; $ > & & > & ; ;   ",
"; ; ; ; ; ; $ $ $ $   ;   # ; ; ; ; ; ; ; & ; > > & 1 > & ; ;   ",
"; ; ; ; ; ; 2 2 2 2   ;   # # # ; ; ; ; ; ; ; ; ; ; ; ; ; ; ;   ",
"; ; ; ; ; ; 2 2 2 2   ;   # ; ; ; ; ; ; ; ; ; ; ; ; ; ; ; ; ;   ",
"; ; ; ; ; ; @ @ @ @   ;   # ; ; ; ; ; ; ; ; ; ; ; ; ; ; ; ; ;   ",
"; ; ; ; ; ; > > > >   ;   # ; ; ; ; ; ; ; ; ; ; ; ; ; ; ; ; ;   ",
"; ; ;   ; ; + + + +   ;   # # # # ; ; ; ; ; ; ; ; ; ; ; ; ; ;   ",
"; ;     ; ; 1 1 1 1   ;   # ; ; ; ; ; ; ; ; ; ; , ; > > & ; ;   ",
"; ; ;   ; ; 1 1 1 1   ;   # ; ; ; ; ; ; ; ; ; > > ; > 2 . ; ;   ",
"; ; ;   ; ; : : : :   ;   # ; ; ; ; ; ; ; & ; 1 , & > > & ; ;   ",
"; ;       ;           ;   # # # ; ; ; ; ; ; ; ; ; ; ; ; ; ; ;   ",
"; ; ; ; ; ; ; ; ; ; ; ;                                         "
};
