<?xml version="1.0" encoding="UTF-8" standalone="no"?>
<!-- Created with Inkscape (http://www.inkscape.org/) -->

<svg
   xmlns:dc="http://purl.org/dc/elements/1.1/"
   xmlns:cc="http://creativecommons.org/ns#"
   xmlns:rdf="http://www.w3.org/1999/02/22-rdf-syntax-ns#"
   xmlns:svg="http://www.w3.org/2000/svg"
   xmlns="http://www.w3.org/2000/svg"
   xmlns:sodipodi="http://sodipodi.sourceforge.net/DTD/sodipodi-0.dtd"
   xmlns:inkscape="http://www.inkscape.org/namespaces/inkscape"
   width="744.09448819"
   height="1052.3622047"
   id="svg2"
   version="1.1"
   inkscape:version="0.47 r22583"
   sodipodi:docname="arina.svg"
   inkscape:export-filename="/home/timurhai/arina.png"
   inkscape:export-xdpi="1200"
   inkscape:export-ydpi="1200">
  <defs
     id="defs4">
    <inkscape:perspective
       sodipodi:type="inkscape:persp3d"
       inkscape:vp_x="0 : 526.18109 : 1"
       inkscape:vp_y="0 : 1000 : 0"
       inkscape:vp_z="744.09448 : 526.18109 : 1"
       inkscape:persp3d-origin="372.04724 : 350.78739 : 1"
       id="perspective10" />
    <inkscape:perspective
       id="perspective2884"
       inkscape:persp3d-origin="0.5 : 0.33333333 : 1"
       inkscape:vp_z="1 : 0.5 : 1"
       inkscape:vp_y="0 : 1000 : 0"
       inkscape:vp_x="0 : 0.5 : 1"
       sodipodi:type="inkscape:persp3d" />
  </defs>
  <sodipodi:namedview
     id="base"
     pagecolor="#ffffff"
     bordercolor="#666666"
     borderopacity="1.0"
     inkscape:pageopacity="0.0"
     inkscape:pageshadow="2"
     inkscape:zoom="0.49497475"
     inkscape:cx="437.16101"
     inkscape:cy="383.43121"
     inkscape:document-units="px"
     inkscape:current-layer="layer1"
     showgrid="false"
     inkscape:window-width="1920"
     inkscape:window-height="1125"
     inkscape:window-x="0"
     inkscape:window-y="24"
     inkscape:window-maximized="1" />
  <metadata
     id="metadata7">
    <rdf:RDF>
      <cc:Work
         rdf:about="">
        <dc:format>image/svg+xml</dc:format>
        <dc:type
           rdf:resource="http://purl.org/dc/dcmitype/StillImage" />
        <dc:title></dc:title>
      </cc:Work>
    </rdf:RDF>
  </metadata>
  <g
     inkscape:label="Layer 1"
     inkscape:groupmode="layer"
     id="layer1">
    <path
       style="fill:none;stroke:#ff0000;stroke-width:35;stroke-linecap:butt;stroke-linejoin:miter;stroke-opacity:1;stroke-miterlimit:4;stroke-dasharray:none"
       d="M 183.84776,234.13862 530.33009,804.87481"
       id="path3668" />
    <path
       sodipodi:type="arc"
       style="fill:#000000;fill-opacity:1;stroke:none"
       id="path3695"
       sodipodi:cx="150.51273"
       sodipodi:cy="541.22498"
       sodipodi:rx="46.467018"
       sodipodi:ry="46.467018"
       d="m 196.97974,541.22498 a 46.467018,46.467018 0 1 1 -92.93403,0 46.467018,46.467018 0 1 1 92.93403,0 z" />
    <path
       sodipodi:type="arc"
       style="fill:#000000;fill-opacity:1;stroke:none"
       id="path3697"
       sodipodi:cx="538.41132"
       sodipodi:cy="331.11325"
       sodipodi:rx="46.467018"
       sodipodi:ry="44.446712"
       d="m 584.87833,331.11325 a 46.467018,44.446712 0 1 1 -92.93403,0 46.467018,44.446712 0 1 1 92.93403,0 z"
       transform="translate(-3.0304576,4.0406102)" />
    <path
       style="fill:#000000;stroke:none;stroke-width:1px;stroke-linecap:butt;stroke-linejoin:miter;stroke-opacity:1;fill-opacity:1"
       d="m 130.30968,695.77833 c -10.10153,-5.05076 3.02082,-30.28688 15.15229,-52.52793 12.12183,-22.22336 31.31473,-56.06347 41.92133,-75.25636 10.45642,-18.92115 15.15228,-23.23351 34.34518,-21.21321 19.1929,2.02031 90.40866,12.62691 114.65232,23.73859 24.24366,11.11168 48.87027,24.94881 35.35534,53.53808 -13.13199,27.77919 -27.27412,35.35534 -30.30458,39.39595 -3.03046,4.04061 -9.09137,11.11168 2.02031,10.10153 11.11167,-1.01015 30.30457,0 42.4264,0 12.12183,0 28.28427,7.07107 28.28427,16.16244 0,9.09137 -8.08122,21.2132 -23.2335,22.22335 -15.15229,1.01016 -66.67007,-2.0203 -91.92389,-3.03045 -25.25381,-1.01016 -29.29442,-21.21321 -20.20305,-34.34519 9.09138,-13.13198 16.16244,-19.1929 21.21321,-23.23351 5.05076,-4.04061 3.03045,-8.08122 -12.12183,-9.09137 -15.15229,-1.01015 -67.68023,-12.12183 -75.76145,-14.14214 -8.08122,-2.0203 -14.14213,-19.19289 -22.22335,-2.0203 -8.08122,17.17259 -22.22336,42.42641 -30.30458,53.53808 -8.08122,11.11168 -18.18274,22.22336 -29.29442,16.16244 z"
       id="path3699"
       sodipodi:nodetypes="csssssssssssssssssc" />
    <path
       style="fill:#000000;stroke:none;stroke-width:1px;stroke-linecap:butt;stroke-linejoin:miter;stroke-opacity:1;fill-opacity:1"
       d="m 345.47217,597.28846 c -13.13198,-8.5863 -13.13198,-20.70813 -5.05076,-30.30458 8.08122,-9.59644 26.76904,-39.90102 32.32488,-48.99239 5.55584,-9.09138 12.12183,-18.18275 24.74874,-20.20306 12.6269,-2.0203 58.58884,-15.15228 65.65991,-16.66751 7.07107,-1.51523 13.63706,-1.01015 12.12183,-7.57615 -1.51523,-6.56599 1.01016,-37.37564 0.50508,-41.92133 -0.50508,-4.54568 -0.50508,-6.56599 -7.07107,-2.0203 -6.56599,4.54568 -33.33503,21.71828 -43.94163,26.26396 -10.60661,4.54569 -23.23351,6.566 -28.28428,0 -5.05076,-6.56599 -1.51522,-17.17259 6.06092,-22.22335 7.57614,-5.05076 59.599,-34.85026 73.23606,-41.92133 13.63706,-7.07107 30.30458,-13.13199 45.96194,-9.09138 15.65736,4.04061 29.29442,11.11168 35.35534,26.26397 6.06091,15.15229 29.7995,63.13454 33.33503,75.25637 3.53554,12.12183 4.04061,24.24366 4.04061,24.24366 l 17.1726,10.10152 0.50507,9.09138 c 0,0 -2.16271,-0.40851 4.04061,8.58629 5.05077,7.32361 7.57615,14.39468 5.55584,19.44544 -2.0203,5.05076 -18.68782,16.16244 -17.67767,26.26397 1.01016,10.10152 27.52665,14.64721 27.77919,27.27412 0.24428,12.21372 -21.71827,21.46573 -27.77919,29.54696 -6.06091,8.08122 -0.75761,34.59772 -9.84898,40.65863 -9.09138,6.06092 -28.25848,13.59264 -34.59773,20.70813 -6.18718,6.9448 -11.74303,13.25825 -16.79379,20.32932 -5.05076,7.07107 -12.31123,18.94036 -21.08693,24.87501 -8.61511,5.82606 -18.18821,8.17149 -2.84106,-2.52539 9.64531,-6.72273 14.58207,-15.01178 19.73676,-24.48072 4.9894,-9.16532 12.23936,-16.76996 17.70203,-22.49137 8.66369,-9.07405 25.50635,-10.10152 32.57741,-21.2132 7.07107,-11.11168 1.51523,-26.26397 8.5863,-37.88072 7.07107,-11.61676 26.75929,-17.44244 25.50635,-27.7792 -1.01015,-8.33376 -24.74873,-11.61675 -25.75889,-25.75888 -1.01015,-14.14214 17.93021,-21.71828 16.41498,-32.82996 -1.51522,-11.11168 -8.08122,-18.68782 -8.08122,-18.68782 l -9.59645,-3.03046 -6.06091,-8.5863 c 0,0 -7.57615,-1.01015 -13.13199,-9.09137 -5.55584,-8.08122 -19.19289,-36.36549 -22.22335,-46.46702 -3.03046,-10.10152 -12.12183,-19.1929 -11.11168,-7.57614 1.01015,11.61675 -2.52538,35.35534 -2.52538,41.92133 0,6.56599 1.01015,22.72843 3.03046,30.80965 2.0203,8.08122 8.58629,59.09392 8.08122,64.14469 -0.50508,5.05076 -0.50508,16.16244 -3.53554,11.61675 -3.03046,-4.54569 -2.52538,-4.04061 -3.03046,3.03046 -0.50507,7.07107 -3.53553,63.63961 -4.54568,75.25636 -1.01015,11.61676 -3.03046,31.31473 -13.13198,31.81981 -10.10153,0.50507 -19.69798,-17.67767 -20.20306,-28.28427 -0.50507,-10.6066 6.06092,-94.95434 5.05077,-100.51018 -1.01016,-5.55584 5.05076,-8.5863 -3.53554,-14.64721 -8.58629,-6.06092 -57.07362,-34.34519 -62.62945,-40.91118 -5.55584,-6.56599 -6.06092,-5.55584 -11.61676,-5.05076 -5.55584,0.50507 -15.15229,2.0203 -20.70813,2.52538 -5.55584,0.50507 -8.08122,2.52538 -10.6066,7.57614 -2.52538,5.05076 -25.75889,42.93148 -29.29442,49.49748 -3.53554,6.56599 -18.68782,18.18274 -28.78935,11.61675 z"
       id="path3701"
       sodipodi:nodetypes="csssssssssssssscccssssssssssssssssscccssssssssssssssssssc" />
    <path
       style="fill:#000000;stroke:none;stroke-width:1px;stroke-linecap:butt;stroke-linejoin:miter;stroke-opacity:1;fill-opacity:1"
       d="m 581.09025,338.94195 c 6.56599,0 5.05076,19.1929 18.94036,18.68782 10.8637,-0.39505 15.15229,-6.81853 19.69798,-12.37437 4.54568,-5.55584 1.76776,-6.56599 -2.77792,-3.03046 -4.54569,3.53554 -5.80838,7.32361 -9.84899,2.77792 -4.04061,-4.54568 1.51523,-10.6066 -4.79822,-16.66752 -6.31346,-6.06091 -9.34392,-5.55583 -12.87945,-3.03046 -3.08248,2.20177 -1.76777,6.81854 -7.32361,6.06092 -5.55583,-0.75761 -9.34391,8.33376 -1.01015,7.57615 z"
       id="path3703"
       sodipodi:nodetypes="csssssssc" />
    <path
       id="path3670"
       d="M 183.84776,234.13862 530.33009,804.87481"
       style="fill:none;stroke:#ff0000;stroke-width:35;stroke-linecap:butt;stroke-linejoin:miter;stroke-opacity:1;stroke-miterlimit:4;stroke-dasharray:none" />
    <path
       sodipodi:type="arc"
       style="fill:none;stroke:#ff0000;stroke-width:19.44590187;stroke-linecap:butt;stroke-linejoin:miter;stroke-miterlimit:4;stroke-opacity:1;stroke-dasharray:none"
       id="path2892"
       sodipodi:cx="478.81232"
       sodipodi:cy="411.92548"
       sodipodi:rx="240.41631"
       sodipodi:ry="213.14218"
       d="m 719.22862,411.92548 a 240.41631,213.14218 0 1 1 -480.83261,0 240.41631,213.14218 0 1 1 480.83261,0 z"
       transform="matrix(1.3958536,0,0,1.57447,-292.67441,-139.5649)" />
  </g>
</svg>
